<svg version="1.1" id="Layer_1" xmlns="http://www.w3.org/2000/svg" viewBox="0 0 278 278">
<title>Muthuraja logo</title>
<g>
	<g>
		<path fill="#FFFFFF" d="M110.5,156c-26,0-34.6,8.7-34.6,23.8c0,13,6.5,21.6,26,21.6c23.8,0,34.6-17.3,34.6-32.5v-8.7l-2.2-2.2
			C134.3,158.2,123.5,156,110.5,156z"/>
		<path fill="#FFFFFF" d="M0,0v278h278V0H0z M149.5,207.9l-2.2,2.2h-6.5l-2.2-2.2l-2.2-10.8h-2.2c-4.3,6.5-13,15.1-34.6,15.1
			c-23.8,0-36.8-13-36.8-32.5c0-23.8,17.3-34.6,45.4-34.6c8.7,0.1,17.4,0.8,26,2.2l2.2-2.2v-6.5c0-19.5-6.5-28.1-28.1-28.1
			s-28.1,10.8-28.1,21.6l-2.2,2.2h-8.7l-2.2-2.2c0-17.3,13-32.5,41.1-32.5c32.5,0,41.1,15.1,41.1,39v69.3L149.5,207.9z M200.3,207.9
			l-2.2,2.2h-8.7l-2.2-2.2V104.1l2.2-2.2h8.7l2.2,2.2V207.9z M200.3,82.4l-2.2,2.2h-8.7l-2.2-2.2v-13l2.2-2.2h8.7l2.2,2.2
			L200.3,82.4z"/>
	</g>
</g>
</svg>
