<svg class="Header-navToggleIcon Header-navToggleIcon--closed"
     xmlns="http://www.w3.org/2000/svg"
     height="48"
     width="48"
     viewBox="0 0 512 512"
     enable-background="new 0 0 512 512"
     xml:space="preserve">
    <g>
        <polygon fill="#003b49" points="348.8,123.8 344.8,127.8 344.8,151.8 348.8,155.8 364.8,155.8 368.9,151.8 368.9,127.8 364.8,123.8"/>
        <polygon fill="#003b49" points="348.8,187.5 344.8,191.5 344.8,382.9 348.8,386.9 364.8,386.9 368.9,382.9 368.9,191.5 364.8,187.5"/>
        <path fill="#003b49" d="M275,255.3c0-44-15.8-71.8-75.7-71.8c-51.8,0-75.7,28-75.7,59.9l4.1,4.1h16l4.1-4.1c0-19.9,12-39.8,51.8-39.8
            s51.8,15.8,51.8,51.8v12l-4.1,4.1c0,0-23.9-4.1-47.9-4.1c-51.8,0-83.6,19.9-83.6,63.7c0,35.9,23.9,59.9,67.8,59.9
            c39.8,0,55.8-15.8,63.7-27.8h4.1l4.1,19.9l4.1,4.1h12l4.1-4.1H275V255.3z M251.4,311.1c0,28-19.9,59.9-63.7,59.9
            c-35.9,0-47.9-15.8-47.9-39.8c0-27.8,15.8-43.8,63.7-43.8c23.9,0,43.8,3.9,43.8,3.7l4.1,4.1V311.1z"/>
        <path fill="#003b49" d="M458.2,441.3c0-5-3.7-7.4-7.9-7.4H438l-0.6,0.6v23.4l0.6,0.6h2.4l0.6-0.6v-8.7l0.6-0.6h6.1l1.3,0.6l6.1,8.7l1.3,0.6h0.6
            l0.6-0.6v-2.4l-4.6-6.8v-0.6C455.8,447.4,458.2,445,458.2,441.3z M449.9,445.5h-8.7l-0.6-0.6v-7.4l0.6-0.6h8.7
            c2.9,0,4.2,1.8,4.2,4.2C454.2,443.7,452.9,445.5,449.9,445.5z"/>
        <path fill="#003b49" d="M446.3,424.1c-12.3,0-22.1,9.8-22.1,22.1s9.8,22.1,22.1,22.1c12.3,0,22.1-9.9,22.1-22.1
            C468.4,433.9,458.6,424.1,446.3,424.1z M446.3,465.4c-10.5,0-19.2-8.7-19.2-19.2c0-10.5,8.7-19.2,19.2-19.2s19,8.7,19.2,19.2
            C465.4,456.7,456.7,465.4,446.3,465.4z"/>
    </g>
</svg>