<svg data-name="Layer 3" xmlns="http://www.w3.org/2000/svg" viewBox="0 0 512 512"><path d="M419.35 64.27H92.57c-15.57 0-28.31 12.37-28.31 27.64v328.15c0 15.28 12.69 27.67 28.31 27.67h326.78c15.64 0 28.39-12.39 28.39-27.67V91.91c0-15.27-12.74-27.64-28.39-27.64zM178 391h-56.88V208H178zm-28.43-208a33 33 0 1133-33 33 33 0 01-33 33zM391 391h-56.81v-89c0-21.23-.39-48.53-29.56-48.53-29.59 0-34.13 23.12-34.13 47V391h-56.83V208h54.56v25h.77c7.59-14.38 26.15-29.55 53.82-29.55 57.59 0 68.23 37.9 68.23 87.17z" data-name="Layer 9"/></svg>