<svg data-name="Layer 3" xmlns="http://www.w3.org/2000/svg" viewBox="0 0 512 512"><path d="M474 120.78a178.88 178.88 0 01-51.38 14.09A89.7 89.7 0 00462 85.38a179 179 0 01-56.8 21.7 89.54 89.54 0 00-152.43 81.59A254 254 0 0168.35 95.21 89.54 89.54 0 0096 214.63a89.14 89.14 0 01-40.52-11.18v1.12a89.51 89.51 0 0071.76 87.71 89.51 89.51 0 01-40.4 1.53 89.53 89.53 0 0083.56 62.12 179.47 179.47 0 01-111.09 38.3A183.34 183.34 0 0138 393a253.2 253.2 0 00137.12 40.18c164.53 0 254.5-136.3 254.5-254.5 0-3.88-.08-7.74-.26-11.57A181.83 181.83 0 00474 120.78" data-name="Layer 7"/></svg>