<svg data-name="Layer 1" xmlns="http://www.w3.org/2000/svg" viewBox="0 0 951.8 278"><path d="M784.3 156c-26 0-34.6 8.7-34.6 23.8 0 13 6.5 21.6 26 21.6 23.8 0 34.6-17.3 34.6-32.5v-8.7l-2.2-2.2c0 .2-10.8-2-23.8-2z"/><path d="M673.8 0v278h278V0zm149.5 207.9l-2.2 2.2h-6.5l-2.2-2.2-2.2-10.8H808c-4.3 6.5-13 15.1-34.6 15.1-23.8 0-36.8-13-36.8-32.5 0-23.8 17.3-34.6 45.4-34.6a178.27 178.27 0 0126 2.2l2.2-2.2v-6.5c0-19.5-6.5-28.1-28.1-28.1S754 121.3 754 132.1l-2.2 2.2h-8.7l-2.2-2.2c0-17.3 13-32.5 41.1-32.5 32.5 0 41.1 15.1 41.1 39v69.3zm50.8 0l-2.2 2.2h-8.7l-2.2-2.2V104.1l2.2-2.2h8.7l2.2 2.2zm0-125.5l-2.2 2.2h-8.7l-2.2-2.2v-13l2.2-2.2h8.7l2.2 2.2zM86.6 212.3h-8.7l-4.3-2.2L41.1 169h-2.2l-15.1 15.1-2.2 4.3V210l-2.2 2.2H2.2L0 210V63l2.2-2.2h17.3l2.2 2.2v93.1h2.2l49.8-49.8 4.3-2.2h6.5l2.2 2.2v15.1l-30.3 30.3v2.2L88.9 195v15.2zm79-110.4c32.5 0 51.9 21.6 51.9 56.3s-19.5 56.3-51.9 56.3-51.9-21.6-51.9-56.3 19.4-56.3 51.9-56.3zm0 93.1c19.5 0 30.3-13 30.3-36.8s-10.8-36.8-30.3-36.8-30.3 13-30.3 36.8 10.8 36.8 30.3 36.8zm156.9 6.5h-2.2s-8.7 13-28.1 13c-30.3 0-47.6-23.8-47.6-56.3s17.3-56.3 47.6-56.3c19.5 0 28.1 13 28.1 13h2.2l2.2-8.7 2.2-2.2H342l2.2 2.2v93.1c0 43.3-23.8 58.4-49.8 58.4s-41.1-13-43.3-30.3l2.2-2.2h17.3l2.2 2.2c4.3 8.7 10.8 10.8 21.6 10.8 19.4.1 28.1-12.9 28.1-36.7zm-28.2-80.1c-17.3 0-28.1 13-28.1 36.8S277 195 294.3 195s28.1-10.8 28.1-36.8-10.7-36.8-28.1-36.8zM475 212.3h-17.3l-2.2-2.2v-62.8c0-10.8-2.2-26-21.6-26s-28.1 10.8-28.1 36.8V210l-2.2 2.2h-17.3l-2.2-2.2V106.3l2.2-2.2h15.1l2.2 2.2 2.2 8.7h2.2s8.7-13 28.1-13c30.3 0 41.1 19.5 41.1 45.4v62.8zm59.5-125.5h-17.3l-2.2-2.2V67.3l2.2-2.2h17.3l2.2 2.2v17.3zm0 125.5h-17.3l-2.2-2.2V106.3l2.2-2.2h17.3l2.2 2.2v103.9zm100.6-88.7h-21.6l-2.2 2.2v84.4l-2.2 2.2h-17.3l-2.2-2.2v-84.4l-2.2-2.2h-15.1l-2.2-2.2v-15.1l2.2-2.2h15.1l2.2-2.2v-8.7c0-19.5 15.1-28.1 30.3-28.1h17.3l2.2 2.2v15.1l-2.2 2.2h-17.3c-4.3 0-8.7 2.2-8.7 8.7v8.7l2.2 2.2H635l2.2 2.2v15.1z"/></svg>