<svg xmlns="http://www.w3.org/2000/svg" viewBox="0 0 3096 5764"><style>.st0{fill:#fff}.st1{opacity:.125;fill:#00738e}.st3{fill:#004758}.st4{font-family:&apos;MyriadPro-Regular&apos;}.st5{font-size:24px}.st6{stroke:#bfbfbf}.st6,.st7,.st8{fill:none;stroke-width:8;stroke-miterlimit:10}.st7{stroke:#bfbfbf;stroke-dasharray:8.0031,8.0031}.st8{stroke:#0084a3}.st9{fill:#0084a3}.st10{fill:none;stroke:#bfbfbf;stroke-width:8;stroke-miterlimit:10;stroke-dasharray:7.9937,7.9937}</style><path class="st0" d="M0 0h3096v5764H0z" id="BG"/><g id="Bullets"><path class="st1" d="M2930 103h14v68h-14zm24 0h14v68h-14zm24 0h14v68h-14zm24 0h14v68h-14zm-2643 0h2561v68H359z"/><path class="st1" d="M359 103h1921v68H359z"/><path class="st1" d="M359 103h1441v68H359z"/><path class="st1" d="M359 103h1025v68H359z"/><path class="st1" d="M359 103h769v68H359z"/><path class="st1" d="M359 103h426v68H359z"/><path class="st1" d="M359 103h376v68H359z"/><path class="st1" d="M359 103h321v68H359z"/><path fill="none" stroke="#004758" stroke-width="8" stroke-miterlimit="10" d="M359 137h2657"/><circle class="st3" cx="2998.5" cy="123.1" r="4"/><circle class="st3" cx="3011.9" cy="136.5" r="4"/><path transform="rotate(45.001 3005.233 129.748)" class="st3" d="M2995.7 125.8h19v8h-19z"/><circle class="st3" cx="2998.5" cy="149.9" r="4"/><circle class="st3" cx="3011.9" cy="136.5" r="4"/><path transform="rotate(-45.001 3005.23 143.253)" class="st3" d="M2995.7 139.2h19v8h-19z"/><g id="wqhd"><circle class="st0" cx="2920" cy="137" r="20"/><path class="st3" d="M2920 121c8.8 0 16 7.2 16 16s-7.2 16-16 16-16-7.2-16-16 7.2-16 16-16m0-8c-13.3 0-24 10.7-24 24s10.7 24 24 24 24-10.7 24-24-10.7-24-24-24z"/><circle cx="2920" cy="137" r="9"/><text transform="translate(2895.376 95.077)" class="st4 st5">2560</text><text transform="translate(2890.984 202.077)" class="st4 st5">wqhd</text></g><g id="dtp"><circle class="st0" cx="2280" cy="137" r="20"/><path class="st3" d="M2280 121c8.8 0 16 7.2 16 16s-7.2 16-16 16-16-7.2-16-16 7.2-16 16-16m0-8c-13.3 0-24 10.7-24 24s10.7 24 24 24 24-10.7 24-24-10.7-24-24-24z"/><circle cx="2280" cy="137" r="9"/><text transform="translate(2256.376 95.077)" class="st4 st5">1920</text><text transform="translate(2263.432 202.077)" class="st4 st5">dtp</text></g><g id="ltp-l"><circle class="st0" cx="1960" cy="137" r="20"/><path class="st3" d="M1960 121c8.8 0 16 7.2 16 16s-7.2 16-16 16-16-7.2-16-16 7.2-16 16-16m0-8c-13.3 0-24 10.7-24 24s10.7 24 24 24 24-10.7 24-24-10.7-24-24-24z"/><circle cx="1960" cy="137" r="9"/><text transform="translate(1935.376 95.077)" class="st4 st5">1600</text><text transform="translate(1939.852 202.077)" class="st4 st5">ltp-l</text></g><g id="ltp-m"><circle class="st0" cx="1800" cy="137" r="20"/><path class="st3" d="M1800 121c8.8 0 16 7.2 16 16s-7.2 16-16 16-16-7.2-16-16 7.2-16 16-16m0-8c-13.3 0-24 10.7-24 24s10.7 24 24 24 24-10.7 24-24-10.7-24-24-24z"/><circle cx="1800" cy="137" r="9"/><text transform="translate(1775.376 95.077)" class="st4 st5">1440</text><text transform="translate(1772.676 202.077)" class="st4 st5">ltp-m</text></g><g id="ltp-s"><circle class="st0" cx="1640" cy="137" r="20"/><path class="st3" d="M1640 121c8.8 0 16 7.2 16 16s-7.2 16-16 16-16-7.2-16-16 7.2-16 16-16m0-8c-13.3 0-24 10.7-24 24s10.7 24 24 24 24-10.7 24-24-10.7-24-24-24z"/><circle cx="1640" cy="137" r="9"/><text transform="translate(1615.376 95.077)" class="st4 st5">1280</text><text transform="translate(1617.932 202.077)" class="st4 st5">ltp-s</text></g><g id="tab-l"><circle class="st0" cx="1384" cy="137" r="20"/><path class="st3" d="M1384 121c8.8 0 16 7.2 16 16s-7.2 16-16 16-16-7.2-16-16 7.2-16 16-16m0-8c-13.3 0-24 10.7-24 24s10.7 24 24 24 24-10.7 24-24-10.7-24-24-24z"/><circle cx="1384" cy="137" r="9"/><text transform="translate(1359.376 95.077)" class="st4 st5">1024</text><text transform="translate(1360.9 202.077)" class="st4 st5">tab-l</text></g><g id="tab-m"><circle class="st0" cx="1128" cy="137" r="20"/><path class="st3" d="M1128 121c8.8 0 16 7.2 16 16s-7.2 16-16 16-16-7.2-16-16 7.2-16 16-16m0-8c-13.3 0-24 10.7-24 24s10.7 24 24 24 24-10.7 24-24-10.7-24-24-24z"/><circle cx="1128" cy="137" r="9"/><text transform="translate(1110.533 95.077)" class="st4 st5">768</text><text transform="translate(1097.724 202.077)" class="st4 st5">tab-m</text></g><g id="tab-s"><circle class="st0" cx="960" cy="137" r="20"/><path class="st3" d="M960 121c8.8 0 16 7.2 16 16s-7.2 16-16 16-16-7.2-16-16 7.2-16 16-16m0-8c-13.3 0-24 10.7-24 24s10.7 24 24 24 24-10.7 24-24-10.7-24-24-24z"/><circle cx="960" cy="137" r="9"/><text transform="translate(942.533 95.077)" class="st4 st5">600</text><text transform="translate(934.98 202.077)" class="st4 st5">tab-s</text></g><g id="mob-l"><circle class="st0" cx="785" cy="137" r="20"/><path class="st3" d="M785 121c8.8 0 16 7.2 16 16s-7.2 16-16 16-16-7.2-16-16 7.2-16 16-16m0-8c-13.3 0-24 10.7-24 24s10.7 24 24 24 24-10.7 24-24-10.7-24-24-24z"/><circle cx="785" cy="137" r="9"/><text transform="translate(765.533 95.077)" class="st4 st5">425</text><text transform="translate(755.06 202.077)" class="st4 st5">mob-l</text></g><g id="mod-m"><circle class="st0" cx="735" cy="137" r="20"/><path class="st3" d="M735 121c8.8 0 16 7.2 16 16s-7.2 16-16 16-16-7.2-16-16 7.2-16 16-16m0-8c-13.3 0-24 10.7-24 24s10.7 24 24 24 24-10.7 24-24-10.7-24-24-24z"/><circle cx="735" cy="137" r="9"/><text transform="translate(716.533 95.077)" class="st4 st5">375</text><text transform="translate(697.884 226.077)" class="st4 st5">mob-m</text></g><g id="mob-s"><circle class="st0" cx="680" cy="137" r="20"/><path class="st3" d="M680 121c8.8 0 16 7.2 16 16s-7.2 16-16 16-16-7.2-16-16 7.2-16 16-16m0-8c-13.3 0-24 10.7-24 24s10.7 24 24 24 24-10.7 24-24-10.7-24-24-24z"/><circle cx="680" cy="137" r="9"/><text transform="translate(661.533 95.077)" class="st4 st5">320</text><text transform="translate(648.14 202.077)" class="st4 st5">mob-s</text></g><g id="all"><circle class="st0" cx="359" cy="137" r="20"/><path class="st3" d="M359 121c8.8 0 16 7.2 16 16s-7.2 16-16 16-16-7.2-16-16 7.2-16 16-16m0-8c-13.3 0-24 10.7-24 24s10.7 24 24 24 24-10.7 24-24-10.7-24-24-24z"/><circle cx="359" cy="137" r="9"/><text transform="translate(352.844 95.077)" class="st4 st5">0</text><text transform="translate(347.552 202.077)" class="st4 st5">all</text></g></g><g id="Columns"><path id="_x30__1_" class="st6" d="M359 212v5476"/><path id="_x33_20_1_" class="st6" d="M680 212v5476"/><path id="_x33_75_1_" class="st6" d="M735 252.7V5688"/><path id="_x34_25_1_" class="st6" d="M785 212v5476"/><path id="_x36_00_1_" class="st6" d="M960 212v5476"/><path id="_x37_68_1_" class="st6" d="M1128 212v5476"/><path id="_x31_024_1_" class="st6" d="M1384 212v5476"/><path id="_x31_280_1_" class="st6" d="M1640 212v5476"/><path id="_x31_440_1_" class="st6" d="M1800 212v5476"/><path id="_x31_600_1_" class="st6" d="M1960 212v5476"/><path id="_x31_920_1_" class="st6" d="M2280 212v5476"/><path id="_x32_560_1_" class="st6" d="M2920 212v5476"/></g><g id="Graphs"><g id="from_wqhd"><path class="st6" d="M359 5681.3h4"/><path class="st7" d="M371 5681.3h2541"/><path class="st6" d="M2916 5681.3h4"/><path class="st8" d="M2939.8 5681.3h56.4"/><path class="st9" d="M2920 5681.3l27.9 11.4-6.7-11.4 6.7-11.3zm96 0l-27.9 11.4 6.7-11.4-6.7-11.3z"/><text transform="translate(230.833 5688.381)" class="st4 st5">from wqhd</text></g><g id="until_wqhd"><path class="st6" d="M359 5610.3h4"/><path class="st7" d="M371 5610.3h2541"/><path class="st6" d="M2916 5610.3h4"/><path class="st8" d="M378.8 5610.3h2521.4"/><path class="st9" d="M359 5610.3l27.9 11.4-6.7-11.4 6.7-11.4zm2561 0l-27.9 11.4 6.7-11.4-6.7-11.4z"/><text transform="translate(233.113 5617.36)" class="st4 st5">until wqhd</text></g><g id="from_dtp"><path class="st6" d="M359 5539.3h4"/><path class="st7" d="M371 5539.3h2541"/><path class="st6" d="M2916 5539.3h4"/><path class="st8" d="M2299.8 5539.3h696.4"/><path class="st9" d="M2280 5539.3l27.9 11.4-6.7-11.4 6.7-11.4zm736 0l-27.9 11.4 6.7-11.4-6.7-11.4z"/><text transform="translate(250.729 5546.338)" class="st4 st5">from dtp</text></g><g id="from_dtp_until_wqhd"><path class="st6" d="M359 5468.3h4"/><path class="st7" d="M371 5468.3h2541"/><path class="st6" d="M2916 5468.3h4"/><path class="st8" d="M2299.8 5468.3h600.4"/><path class="st9" d="M2280 5468.3l27.9 11.4-6.7-11.4 6.7-11.4zm640 0l-27.9 11.4 6.7-11.4-6.7-11.4z"/><text transform="translate(136.755 5475.315)" class="st4 st5">from dtp until wqhd</text></g><g id="until_dtp"><path class="st6" d="M359 5397.3h4"/><path class="st7" d="M371 5397.3h2541"/><path class="st6" d="M2916 5397.3h4"/><path class="st8" d="M378.8 5397.3h1881.4"/><path class="st9" d="M359 5397.3l27.9 11.3-6.7-11.3 6.7-11.4zm1921 0l-27.9 11.3 6.7-11.3-6.7-11.4z"/><text transform="translate(256.01 5404.294)" class="st4 st5">until dtp</text></g><g id="from_ltp-l"><path class="st6" d="M359 5326.2h4"/><path class="st7" d="M371 5326.2h2541"/><path class="st6" d="M2916 5326.2h4"/><path class="st8" d="M1979.8 5326.2h1016.4"/><path class="st9" d="M1960 5326.2l27.9 11.4-6.7-11.4 6.7-11.4zm1056 0l-27.9 11.4 6.7-11.4-6.7-11.4z"/><text transform="translate(248.57 5333.271)" class="st4 st5">from ltp-l</text></g><g id="from_ltp-l_until_wqhd"><path class="st6" d="M359 5255.2h4"/><path class="st7" d="M371 5255.2h2541"/><path class="st6" d="M2916 5255.2h4"/><path class="st8" d="M1979.8 5255.2h920.4"/><path class="st9" d="M1960 5255.2l27.9 11.4-6.7-11.4 6.7-11.4zm960 0l-27.9 11.4 6.7-11.4-6.7-11.4z"/><text transform="translate(134.595 5262.25)" class="st4 st5">from ltp-l until wqhd</text></g><g id="from_ltp-l_until_dtp"><path class="st6" d="M359 5184.2h4"/><path class="st7" d="M371 5184.2h2541"/><path class="st6" d="M2916 5184.2h4"/><path class="st8" d="M1979.8 5184.2h280.4"/><path class="st9" d="M1960 5184.2l27.9 11.4-6.7-11.4 6.7-11.4zm320 0l-27.9 11.4 6.7-11.4-6.7-11.4z"/><text transform="translate(154.492 5191.228)" class="st4 st5">from ltp-l until dtp</text></g><g id="until_ltp-l"><path class="st6" d="M359 5113.2h4"/><path class="st7" d="M371 5113.2h2541"/><path class="st6" d="M2916 5113.2h4"/><path class="st8" d="M378.8 5113.2h1561.4"/><path class="st9" d="M359 5113.2l27.9 11.3-6.7-11.3 6.7-11.4zm1601 0l-27.9 11.3 6.7-11.3-6.7-11.4z"/><text transform="translate(247.85 5120.206)" class="st4 st5">until ltp-l</text></g><g id="from_ltp-m"><text transform="translate(231.217 5049.185)" class="st4 st5">from ltp-m</text><path class="st6" d="M359 5042.1h4"/><path class="st7" d="M371 5042.1h2541"/><path class="st6" d="M2916 5042.1h4"/><path class="st8" d="M1819.8 5042.1h1176.4"/><path class="st9" d="M1800 5042.1l27.9 11.4-6.7-11.4 6.7-11.3zm1216 0l-27.9 11.4 6.7-11.4-6.7-11.3z"/></g><g id="from_ltp-m_until_wqhd"><text transform="translate(120.243 4978.163)" class="st4 st5">from ltp-m until wqhd</text><path class="st6" d="M359 4971.1h4"/><path class="st7" d="M371 4971.1h2541"/><path class="st6" d="M2916 4971.1h4"/><path class="st8" d="M1819.8 4971.1h1080.4"/><path class="st9" d="M1800 4971.1l27.9 11.4-6.7-11.4 6.7-11.4zm1120 0l-27.9 11.4 6.7-11.4-6.7-11.4z"/></g><g id="from_ltp-m_until_dtp"><text transform="translate(143.139 4907.141)" class="st4 st5">from ltp-m until dtp</text><path class="st6" d="M359 4900.1h4"/><path class="st7" d="M371 4900.1h2541"/><path class="st6" d="M2916 4900.1h4"/><path class="st8" d="M1819.8 4900.1h440.4"/><path class="st9" d="M1800 4900.1l27.9 11.4-6.7-11.4 6.7-11.4zm480 0l-27.9 11.4 6.7-11.4-6.7-11.4z"/></g><g id="from_ltp-m_until_ltp-l"><text transform="translate(137.98 4836.12)" class="st4 st5">from ltp-m until ltp-l</text><path class="st6" d="M359 4829.1h4"/><path class="st7" d="M371 4829.1h2541"/><path class="st6" d="M2916 4829.1h4"/><path class="st8" d="M1819.8 4829.1h120.4"/><path class="st9" d="M1800 4829.1l27.9 11.4-6.7-11.4 6.7-11.4zm160 0l-27.9 11.4 6.7-11.4-6.7-11.4z"/></g><g id="until_ltp-m"><text transform="translate(236.498 4765.097)" class="st4 st5">until ltp-m</text><path class="st6" d="M359 4758.1h4"/><path class="st7" d="M371 4758.1h2541"/><path class="st6" d="M2916 4758.1h4"/><path class="st8" d="M378.8 4758.1h1401.4"/><path class="st9" d="M359 4758.1l27.9 11.3-6.7-11.3 6.7-11.4zm1441 0l-27.9 11.3 6.7-11.3-6.7-11.4z"/></g><g id="from_ltp-s"><text transform="translate(241.73 4694.075)" class="st4 st5">from ltp-s</text><path class="st6" d="M359 4687h4"/><path class="st7" d="M371 4687h2541"/><path class="st6" d="M2916 4687h4"/><path class="st8" d="M1659.8 4687h1336.4"/><path class="st9" d="M1640 4687l27.9 11.4-6.7-11.4 6.7-11.3zm1376 0l-27.9 11.4 6.7-11.4-6.7-11.3z"/></g><g id="from_ltp-s_until_wqhd"><text transform="translate(127.755 4623.054)" class="st4 st5">from ltp-s until wqhd</text><path class="st6" d="M359 4616h4"/><path class="st7" d="M371 4616h2541"/><path class="st6" d="M2916 4616h4"/><path class="st8" d="M1659.8 4616h1240.4"/><path class="st9" d="M1640 4616l27.9 11.4-6.7-11.4 6.7-11.4zm1280 0l-27.9 11.4 6.7-11.4-6.7-11.4z"/></g><g id="from_ltp-s_until_dtp"><text transform="translate(153.651 4552.032)" class="st4 st5">from ltp-s until dtp</text><path class="st6" d="M359 4544h4"/><path class="st7" d="M371 4544h2541"/><path class="st6" d="M2916 4544h4"/><path class="st8" d="M1659.8 4545h600.4"/><path class="st9" d="M1640 4545l27.9 11.4-6.7-11.4 6.7-11.4zm640 0l-27.9 11.4 6.7-11.4-6.7-11.4z"/></g><g id="from_ltp-s_until_ltp-l"><text transform="translate(148.492 4481.01)" class="st4 st5">from ltp-s until ltp-l</text><path class="st6" d="M359 4474h4"/><path class="st10" d="M371 4474h2538"/><path class="st6" d="M2913 4474h4"/><path class="st8" d="M1659.8 4474h280.4"/><path class="st9" d="M1640 4474l27.9 11.3-6.7-11.3 6.7-11.4zm320 0l-27.9 11.3 6.7-11.3-6.7-11.4z"/></g><g id="from_ltp-s_until_ltp-m"><text transform="translate(131.14 4409.988)" class="st4 st5">from ltp-s until ltp-m</text><path class="st6" d="M359 4402.9h4"/><path class="st7" d="M371 4402.9h2541"/><path class="st6" d="M2916 4402.9h4"/><path class="st8" d="M1659.8 4402.9h120.4"/><path class="st9" d="M1640 4402.9l27.9 11.4-6.7-11.4 6.7-11.3zm160 0l-27.9 11.4 6.7-11.4-6.7-11.3z"/></g><g id="until_ltp-s"><text transform="translate(244.01 4338.966)" class="st4 st5">until ltp-s</text><path class="st6" d="M359 4331.9h4"/><path class="st7" d="M371 4331.9h2541"/><path class="st6" d="M2916 4331.9h4"/><path class="st8" d="M378.8 4331.9h1239.4"/><path class="st9" d="M359 4331.9l27.9 11.4-6.7-11.4 6.7-11.4zm1279 0l-27.9 11.4 6.7-11.4-6.7-11.4z"/></g><g id="from_tab-l"><text transform="translate(239.665 4267.944)" class="st4 st5">from tab-l</text><path class="st6" d="M359 4260.9h4"/><path class="st7" d="M371 4260.9h2541"/><path class="st6" d="M2916 4260.9h4"/><path class="st8" d="M1403.8 4260.9h1592.4"/><path class="st9" d="M1384 4260.9l27.9 11.4-6.7-11.4 6.7-11.4zm1632 0l-27.9 11.4 6.7-11.4-6.7-11.4z"/></g><g id="from_tab-l_until_wqhd"><text transform="translate(125.692 4196.923)" class="st4 st5">from tab-l until wqhd</text><path class="st6" d="M359 4189.9h4"/><path class="st7" d="M371 4189.9h2541"/><path class="st6" d="M2916 4189.9h4"/><path class="st8" d="M1403.8 4189.9h1496.4"/><path class="st9" d="M1384 4189.9l27.9 11.4-6.7-11.4 6.7-11.4zm1536 0l-27.9 11.4 6.7-11.4-6.7-11.4z"/></g><g id="from_tab-l_until_dtp"><text transform="translate(148.587 4125.9)" class="st4 st5">from tab-l until dtp</text><path class="st6" d="M359 4118.9h4"/><path class="st7" d="M371 4118.9h2541"/><path class="st6" d="M2916 4118.9h4"/><path class="st8" d="M1403.8 4118.9h856.4"/><path class="st9" d="M1384 4118.9l27.9 11.3-6.7-11.3 6.7-11.4zm896 0l-27.9 11.3 6.7-11.3-6.7-11.4z"/></g><g id="from_tab-l_until_ltp-l"><text transform="translate(143.428 4054.879)" class="st4 st5">from tab-l until ltp-l</text><path class="st6" d="M359 4047.8h4"/><path class="st7" d="M371 4047.8h2541"/><path class="st6" d="M2916 4047.8h4"/><path class="st8" d="M1403.8 4047.8h536.4"/><path class="st9" d="M1384 4047.8l27.9 11.4-6.7-11.4 6.7-11.3zm576 0l-27.9 11.4 6.7-11.4-6.7-11.3z"/></g><g id="from_tab-l_until_ltp-m"><text transform="translate(129.075 3983.857)" class="st4 st5">from tab-l until ltp-m</text><path class="st6" d="M359 3976.8h4"/><path class="st7" d="M371 3976.8h2541"/><path class="st6" d="M2916 3976.8h4"/><path class="st8" d="M1403.8 3976.8h376.4"/><path class="st9" d="M1384 3976.8l27.9 11.4-6.7-11.4 6.7-11.4zm416 0l-27.9 11.4 6.7-11.4-6.7-11.4z"/></g><g id="from_tab-l_until_ltp-s"><text transform="translate(139.588 3912.835)" class="st4 st5">from tab-l until ltp-s</text><path class="st6" d="M359 3905.8h4"/><path class="st7" d="M371 3905.8h2541"/><path class="st6" d="M2916 3905.8h4"/><path class="st8" d="M1403.8 3905.8h216.4"/><path class="st9" d="M1384 3905.8l27.9 11.4-6.7-11.4 6.7-11.4zm256 0l-27.9 11.4 6.7-11.4-6.7-11.4z"/></g><g id="until_tab-l"><text transform="translate(241.946 3841.813)" class="st4 st5">until tab-l</text><path class="st6" d="M359 3834.8h4"/><path class="st7" d="M371 3834.8h2541"/><path class="st6" d="M2916 3834.8h4"/><path class="st8" d="M378.8 3834.8h985.4"/><path class="st9" d="M359 3834.8l27.9 11.4-6.7-11.4 6.7-11.4zm1025 0l-27.9 11.4 6.7-11.4-6.7-11.4z"/></g><g id="from_tab-m"><text transform="translate(225.313 3770.791)" class="st4 st5">from tab-m</text><path class="st6" d="M360 3763.7h4"/><path class="st7" d="M372 3763.7h2541"/><path class="st6" d="M2917 3763.7h4"/><path class="st8" d="M1147.8 3763.7h1848.4"/><path class="st9" d="M1128 3763.7l27.9 11.4-6.7-11.4 6.7-11.3zm1888 0l-27.9 11.4 6.7-11.4-6.7-11.3z"/></g><g id="from_tab-m_until_wqhd"><text transform="translate(111.34 3699.769)" class="st4 st5">from tab-m until wqhd</text><path class="st6" d="M360 3692.7h4"/><path class="st7" d="M372 3692.7h2541"/><path class="st6" d="M2917 3692.7h4"/><path class="st8" d="M1147.8 3692.7h1752.4"/><path class="st9" d="M1128 3692.7l27.9 11.4-6.7-11.4 6.7-11.4zm1792 0l-27.9 11.4 6.7-11.4-6.7-11.4z"/></g><g id="from_tab-m_until_dtp"><text transform="translate(134.235 3628.748)" class="st4 st5">from tab-m until dtp</text><path class="st6" d="M360 3621.7h4"/><path class="st7" d="M372 3621.7h2541"/><path class="st6" d="M2917 3621.7h4"/><path class="st8" d="M1147.8 3621.7h1112.4"/><path class="st9" d="M1128 3621.7l27.9 11.4-6.7-11.4 6.7-11.4zm1152 0l-27.9 11.4 6.7-11.4-6.7-11.4z"/></g><g id="from_tabm_until_ltp-l"><text transform="translate(129.075 3557.726)" class="st4 st5">from tab-m until ltp-l</text><path class="st6" d="M359 3550.7h4"/><path class="st7" d="M371 3550.7h2541"/><path class="st6" d="M2916 3550.7h4"/><path class="st8" d="M1147.8 3550.7h792.4"/><path class="st9" d="M1128 3550.7l27.9 11.4-6.7-11.4 6.7-11.4zm832 0l-27.9 11.4 6.7-11.4-6.7-11.4z"/></g><g id="from_tab-m_until_ltp-m"><text transform="translate(114.723 3486.704)" class="st4 st5">from tab-m until ltp-m</text><path class="st6" d="M359 3479.7h4"/><path class="st7" d="M371 3479.7h2541"/><path class="st6" d="M2916 3479.7h4"/><path class="st8" d="M1147.8 3479.6l632.4.1"/><path class="st9" d="M1128 3479.6l27.9 11.4-6.7-11.4 6.7-11.4zm672 .1l-27.9 11.4 6.7-11.4-6.7-11.4z"/></g><g id="from_tab-m_until_ltp-s"><text transform="translate(125.236 3415.682)" class="st4 st5">from tab-m until ltp-s</text><path class="st6" d="M359 3408.6h4"/><path class="st7" d="M371 3408.6h2541"/><path class="st6" d="M2916 3408.6h4"/><path class="st8" d="M1147.8 3408.6h472.4"/><path class="st9" d="M1128 3408.6l27.9 11.4-6.7-11.4 6.7-11.3zm512 0l-27.9 11.4 6.7-11.4-6.7-11.3z"/></g><g id="from_tab-m_until_tab-l"><text transform="translate(123.172 3344.66)" class="st4 st5">from tab-m until tab-l</text><path class="st6" d="M359 3337.6h4"/><path class="st7" d="M371 3337.6h2541"/><path class="st6" d="M2916 3337.6h4"/><path class="st8" d="M1147.8 3337.6h216.4"/><path class="st9" d="M1128 3337.6l27.9 11.4-6.7-11.4 6.7-11.4zm256 0l-27.9 11.4 6.7-11.4-6.7-11.4z"/></g><g id="until_tab-m"><text transform="translate(227.594 3273.639)" class="st4 st5">until tab-m</text><path class="st6" d="M359 3266.6h4"/><path class="st7" d="M371 3266.6h2541"/><path class="st6" d="M2916 3266.6h4"/><path class="st8" d="M378.8 3266.6h729.4"/><path class="st9" d="M359 3266.6l27.9 11.4-6.7-11.4 6.7-11.4zm769 0l-27.9 11.4 6.7-11.4-6.7-11.4z"/></g><g id="from_tab-s"><text transform="translate(235.825 3202.617)" class="st4 st5">from tab-s</text><path class="st6" d="M359 3195.6h4"/><path class="st7" d="M371 3195.6h2541"/><path class="st6" d="M2916 3195.6h4"/><path class="st8" d="M1147.8 3195.6h1848.4"/><path class="st9" d="M1128 3195.6l27.9 11.4-6.7-11.4 6.7-11.4zm1888 0l-27.9 11.4 6.7-11.4-6.7-11.4z"/></g><g id="from_tab-s_until_wqhd"><text transform="translate(121.851 3131.595)" class="st4 st5">from tab-s until wqhd</text><path class="st6" d="M359 3124.6h4"/><path class="st7" d="M371 3124.6h2541"/><path class="st6" d="M2916 3124.6h4"/><path class="st8" d="M1147.8 3124.6h1752.4"/><path class="st9" d="M1128 3124.6l27.9 11.3-6.7-11.3 6.7-11.4zm1792 0l-27.9 11.3 6.7-11.3-6.7-11.4z"/></g><g id="from_tab-s_until_dtp"><text transform="translate(144.747 3060.573)" class="st4 st5">from tab-s until dtp</text><path class="st6" d="M359 3053.5h4"/><path class="st7" d="M371 3053.5h2541"/><path class="st6" d="M2916 3053.5h4"/><path class="st8" d="M1147.8 3053.5h1112.4"/><path class="st9" d="M1128 3053.5l27.9 11.4-6.7-11.4 6.7-11.4zm1152 0l-27.9 11.4 6.7-11.4-6.7-11.4z"/></g><g id="from_tab-s_until_ltp-l"><text transform="translate(139.588 2989.552)" class="st4 st5">from tab-s until ltp-l</text><path class="st6" d="M359 2982.5h4"/><path class="st7" d="M371 2982.5h2541"/><path class="st6" d="M2916 2982.5h4"/><path class="st8" d="M1147.8 2982.5h792.4"/><path class="st9" d="M1128 2982.5l27.9 11.4-6.7-11.4 6.7-11.4zm832 0l-27.9 11.4 6.7-11.4-6.7-11.4z"/></g><g id="from_tab-s_until_ltp-m"><text transform="translate(125.236 2918.53)" class="st4 st5">from tab-s until ltp-m</text><path class="st6" d="M359 2911.5h4"/><path class="st7" d="M371 2911.5h2541"/><path class="st6" d="M2916 2911.5h4"/><path class="st8" d="M1147.8 2911.5h632.4"/><path class="st9" d="M1128 2911.5l27.9 11.4-6.7-11.4 6.7-11.4zm672 0l-27.9 11.4 6.7-11.4-6.7-11.4z"/></g><g id="from_tab-s_until_ltp-s"><path class="st6" d="M359 2840.5h4"/><path class="st7" d="M371 2840.5h2541"/><path class="st6" d="M2916 2840.5h4"/><path class="st8" d="M1147.8 2840.5h472.4"/><path class="st9" d="M1128 2840.5l27.9 11.3-6.7-11.3 6.7-11.4zm512 0l-27.9 11.3 6.7-11.3-6.7-11.4z"/><text transform="translate(135.747 2847.508)" class="st4 st5">from tab-s until ltp-s</text></g><g id="from_tab-s_until_tab-l"><path class="st6" d="M359 2769.4h4"/><path class="st7" d="M371 2769.4h2541"/><path class="st6" d="M2916 2769.4h4"/><path class="st8" d="M1147.8 2769.5l216.4.1"/><path class="st9" d="M1128 2769.4l27.8 11.5-6.6-11.4 6.7-11.4zm256 .3l-27.9 11.3 6.7-11.4-6.6-11.3z"/><text transform="translate(133.684 2776.486)" class="st4 st5">from tab-s until tab-l</text></g><g id="from_tab-s_until-m"><text transform="translate(119.331 2705.464)" class="st4 st5">from tab-s until tab-m</text><path class="st6" d="M359 2698.4h4"/><path class="st7" d="M371 2698.4h2541"/><path class="st6" d="M2916 2698.4h4"/><path class="st8" d="M979.8 2698.4h128.4"/><path class="st9" d="M960 2698.4l27.9 11.4-6.7-11.4 6.7-11.4zm168 0l-27.9 11.4 6.7-11.4-6.7-11.4z"/></g><g id="until_tab-s"><text transform="translate(238.107 2634.442)" class="st4 st5">until tab-s</text><path class="st6" d="M359 2626.4h4"/><path class="st10" d="M371 2626.4h2538"/><path class="st6" d="M2913 2626.4h4"/><path class="st8" d="M378.8 2626.4h561.4"/><path class="st9" d="M359 2626.4l27.9 11.3-6.7-11.3 6.7-11.4zm601 0l-27.9 11.3 6.7-11.3-6.7-11.4z"/></g><g id="from_mob-l"><text transform="translate(225.985 2563.42)" class="st4 st5">from mob-l</text><path class="st6" d="M359 2556.4h4"/><path class="st7" d="M371 2556.4h2541"/><path class="st6" d="M2916 2556.4h4"/><path class="st8" d="M804.8 2556.4h2191.4"/><path class="st9" d="M785 2556.4l27.9 11.4-6.7-11.4 6.7-11.4zm2231 0l-27.9 11.4 6.7-11.4-6.7-11.4z"/></g><g id="from_mob-l_until_wqhd"><text transform="translate(112.011 2492.399)" class="st4 st5">from mob-l until wqhd</text><path class="st6" d="M359 2485.4h4"/><path class="st7" d="M371 2485.4h2541"/><path class="st6" d="M2916 2485.4h4"/><path class="st8" d="M804.8 2485.4h2095.4"/><path class="st9" d="M785 2485.4l27.9 11.3-6.7-11.3 6.7-11.4zm2135 0l-27.9 11.3 6.7-11.3-6.7-11.4z"/></g><g id="from_mob-l_until_dtp"><text transform="translate(134.907 2421.376)" class="st4 st5">from mob-l until dtp</text><path class="st6" d="M359 2414.3h4"/><path class="st7" d="M371 2414.3h2541"/><path class="st6" d="M2916 2414.3h4"/><path class="st8" d="M804.8 2414.3h1455.4"/><path class="st9" d="M785 2414.3l27.9 11.4-6.7-11.4 6.7-11.3zm1495 0l-27.9 11.4 6.7-11.4-6.7-11.3z"/></g><g id="from_mob-l_until_ltp-l"><text transform="translate(129.747 2350.355)" class="st4 st5">from mob-l until ltp-l</text><path class="st6" d="M359 2343.3h4"/><path class="st7" d="M371 2343.3h2541"/><path class="st6" d="M2916 2343.3h4"/><path class="st8" d="M804.8 2343.3h1135.4"/><path class="st9" d="M785 2343.3l27.9 11.4-6.7-11.4 6.7-11.4zm1175 0l-27.9 11.4 6.7-11.4-6.7-11.4z"/></g><g id="from_mob-l_until_ltp-m"><text transform="translate(115.396 2279.333)" class="st4 st5">from mob-l until ltp-m</text><path class="st6" d="M359 2272.3h4"/><path class="st7" d="M371 2272.3h2541"/><path class="st6" d="M2916 2272.3h4"/><path class="st8" d="M804.8 2272.3h975.4"/><path class="st9" d="M785 2272.3l27.9 11.4-6.7-11.4 6.7-11.4zm1015 0l-27.9 11.4 6.7-11.4-6.7-11.4z"/></g><g id="from_mob-l_until_ltp-s"><text transform="translate(125.908 2208.31)" class="st4 st5">from mob-l until ltp-s</text><path class="st6" d="M360 2201.3h4"/><path class="st7" d="M372 2201.3h2541"/><path class="st6" d="M2917 2201.3h4"/><path class="st8" d="M804.8 2201.3h815.4"/><path class="st9" d="M785 2201.3l27.9 11.4-6.7-11.4 6.7-11.4zm855 0l-27.9 11.4 6.7-11.4-6.7-11.4z"/></g><g id="from_mob-l_until_tab-l"><text transform="translate(123.844 2137.29)" class="st4 st5">from mob-l until tab-l</text><path class="st6" d="M359 2130.2h4"/><path class="st7" d="M371 2130.2h2541"/><path class="st6" d="M2916 2130.2h4"/><path class="st8" d="M804.8 2130.2h559.4"/><path class="st9" d="M785 2130.2l27.9 11.4-6.7-11.4 6.7-11.3zm599 0l-27.9 11.4 6.7-11.4-6.7-11.3z"/></g><g id="from_mob-l_until_tab-m"><text transform="translate(112.492 2066.267)" class="st4 st5">from mob-l until tab-m</text><path class="st6" d="M359 2059.2h4"/><path class="st7" d="M371 2059.2h2541"/><path class="st6" d="M2916 2059.2h4"/><path class="st8" d="M804.8 2059.2h303.4"/><path class="st9" d="M785 2059.2l27.9 11.4-6.7-11.4 6.7-11.4zm343 0l-27.9 11.4 6.7-11.4-6.7-11.4z"/></g><g id="from_mob-l_until_tab-s"><text transform="translate(120.004 1995.246)" class="st4 st5">from mob-l until tab-s</text><path class="st6" d="M359 1988.2h4"/><path class="st7" d="M371 1988.2h2541"/><path class="st6" d="M2916 1988.2h4"/><path class="st8" d="M804.8 1988.2h135.4"/><path class="st9" d="M785 1988.2l27.9 11.4-6.7-11.4 6.7-11.4zm175 0l-27.9 11.4 6.7-11.4-6.7-11.4z"/></g><g id="until_mob-l"><text transform="translate(228.266 1924.223)" class="st4 st5">until mob-l</text><path class="st6" d="M359 1917.2h4"/><path class="st7" d="M371 1917.2h2541"/><path class="st6" d="M2916 1917.2h4"/><path class="st8" d="M378.8 1917.2h386.4"/><path class="st9" d="M359 1917.2l27.9 11.4-6.7-11.4 6.7-11.4zm426 0l-27.9 11.4 6.7-11.4-6.7-11.4z"/></g><g id="from_mob-m"><text transform="translate(211.633 1853.202)" class="st4 st5">from mob-m</text><path class="st6" d="M359 1846.2h4"/><path class="st7" d="M371 1846.2h2541"/><path class="st6" d="M2916 1846.2h4"/><path class="st8" d="M754.8 1846.2h2241.4"/><path class="st9" d="M735 1846.2l27.9 11.3-6.7-11.3 6.7-11.4zm2281 0l-27.9 11.3 6.7-11.3-6.7-11.4z"/></g><g id="from_mob-m_until_wqhd"><text transform="translate(97.66 1782.18)" class="st4 st5">from mob-m until wqhd</text><path class="st6" d="M359 1775.1h4"/><path class="st7" d="M371 1775.1h2541"/><path class="st6" d="M2916 1775.1h4"/><path class="st8" d="M754.8 1775.1h2145.4"/><path class="st9" d="M735 1775.1l27.9 11.4-6.7-11.4 6.7-11.3zm2185 0l-27.9 11.4 6.7-11.4-6.7-11.3z"/></g><g id="from_mob-m_until_dtp"><text transform="translate(120.556 1711.158)" class="st4 st5">from mob-m until dtp</text><path class="st6" d="M359 1704.1h4"/><path class="st7" d="M371 1704.1h2541"/><path class="st6" d="M2916 1704.1h4"/><path class="st8" d="M754.8 1704.1h1505.4"/><path class="st9" d="M735 1704.1l27.9 11.4-6.7-11.4 6.7-11.4zm1545 0l-27.9 11.4 6.7-11.4-6.7-11.4z"/></g><g id="from_mob-m_until_ltp-l"><text transform="translate(115.395 1640.137)" class="st4 st5">from mob-m until ltp-l</text><path class="st6" d="M359 1633.1h4"/><path class="st7" d="M371 1633.1h2541"/><path class="st6" d="M2916 1633.1h4"/><path class="st8" d="M754.8 1633.1h1185.4"/><path class="st9" d="M735 1633.1l27.9 11.4-6.7-11.4 6.7-11.4zm1225 0l-27.9 11.4 6.7-11.4-6.7-11.4z"/></g><g id="from_mob-m_until_ltp-m"><text transform="translate(104.043 1569.114)" class="st4 st5">from mob-m until ltp-m</text><path class="st6" d="M359 1562.1h4"/><path class="st7" d="M371 1562.1h2541"/><path class="st6" d="M2916 1562.1h4"/><path class="st8" d="M754.8 1562.1h1025.4"/><path class="st9" d="M735 1562.1l27.9 11.4-6.7-11.4 6.7-11.4zm1065 0l-27.9 11.4 6.7-11.4-6.7-11.4z"/></g><g id="from_mob-m_until_ltp-s"><text transform="translate(114.555 1498.093)" class="st4 st5">from mob-m until ltp-s</text><path class="st6" d="M359 1491h4"/><path class="st7" d="M371 1491h2541"/><path class="st6" d="M2916 1491h4"/><path class="st8" d="M754.8 1491h865.4"/><path class="st9" d="M735 1491l27.9 11.4-6.7-11.4 6.7-11.3zm905 0l-27.9 11.4 6.7-11.4-6.7-11.3z"/></g><g id="from_mob-m_until_tab-l"><text transform="translate(112.492 1427.071)" class="st4 st5">from mob-m until tab-l</text><path class="st6" d="M359 1420h4"/><path class="st7" d="M371 1420h2541"/><path class="st6" d="M2916 1420h4"/><path class="st8" d="M754.8 1420h609.4"/><path class="st9" d="M735 1420l27.9 11.4-6.7-11.4 6.7-11.4zm649 0l-27.9 11.4 6.7-11.4-6.7-11.4z"/></g><g id="from_mob-m_until_tab-m"><text transform="translate(98.139 1356.05)" class="st4 st5">from mob-m until tab-m</text><path class="st6" d="M359 1349h4"/><path class="st7" d="M371 1349h2541"/><path class="st6" d="M2916 1349h4"/><path class="st8" d="M754.8 1349h353.4"/><path class="st9" d="M735 1349l27.9 11.4-6.7-11.4 6.7-11.4zm393 0l-27.9 11.4 6.7-11.4-6.7-11.4z"/></g><g id="from_mob-m_until_tab-s"><text transform="translate(105.651 1285.027)" class="st4 st5">from mob-m until tab-s</text><path class="st6" d="M359 1278h4"/><path class="st7" d="M371 1278h2541"/><path class="st6" d="M2916 1278h4"/><path class="st8" d="M754.8 1278h185.4"/><path class="st9" d="M735 1278l27.9 11.4-6.7-11.4 6.7-11.4zm225 0l-27.9 11.4 6.7-11.4-6.7-11.4z"/></g><g id="from_mob-m_until_mob-l"><text transform="translate(98.811 1214.005)" class="st4 st5">from mob-m until mob-l</text><path class="st6" d="M359 1207.9h4"/><path class="st7" d="M371 1207.9h2541"/><path class="st6" d="M2916 1207.9h4"/><path class="st8" d="M754.8 1207.9h10.4"/><path class="st9" d="M735 1207.9l27.9 11.4-6.7-11.4 6.7-11.4z"/><path class="st9" d="M785 1207.9l-27.9 11.4 6.7-11.4-6.7-11.4z"/></g><g id="until_mob-m"><text transform="translate(193.61 1142.984)" class="st4 st5">until mobile-m</text><path class="st6" d="M359 1135.9h4"/><path class="st7" d="M371 1135.9h2541"/><path class="st6" d="M2916 1135.9h4"/><path class="st8" d="M378.8 1135.9h336.4"/><path class="st9" d="M359 1135.9l27.9 11.4-6.7-11.4 6.7-11.3zm376 0l-27.9 11.4 6.7-11.4-6.7-11.3z"/></g><g id="from_mob-s"><path class="st6" d="M359 1066.5h4"/><path class="st7" d="M371 1066.5h2541"/><path class="st6" d="M2916 1066.5h4"/><text transform="translate(201.842 1071.962)" class="st4 st5">from mobile-s</text><path class="st8" d="M699.8 1066.9h2296.4"/><path class="st9" d="M680 1066.9l27.9 11.4-6.7-11.4 6.7-11.4zm2336 0l-27.9 11.4 6.7-11.4-6.7-11.4z"/></g><g id="from_mob-s_until_wqhd"><text transform="translate(87.867 1000.94)" class="st4 st5">from mobile-s until wqhd</text><path class="st6" d="M359 993.9h4"/><path class="st7" d="M371 993.9h2541"/><path class="st6" d="M2916 993.9h4"/><path class="st8" d="M699.8 993.9h2200.4"/><path class="st9" d="M680 993.9l27.9 11.4-6.7-11.4 6.7-11.4zm2240 0l-27.9 11.4 6.7-11.4-6.7-11.4z"/></g><g id="from_mob-s_until_dtp"><text transform="translate(110.764 929.918)" class="st4 st5">from mobile-s until dtp</text><path class="st6" d="M359 922.9h4"/><path class="st7" d="M371 922.9h2541"/><path class="st6" d="M2916 922.9h4"/><path class="st8" d="M699.8 922.9h1560.4"/><path class="st9" d="M680 922.9l27.9 11.4-6.7-11.4 6.7-11.4zm1600 0l-27.9 11.4 6.7-11.4-6.7-11.4z"/></g><g id="from_mob-s_until_ltp-l"><text transform="translate(105.604 858.896)" class="st4 st5">from mobile-s until ltp-l</text><path class="st6" d="M359 851.9h4"/><path class="st7" d="M371 851.9h2541"/><path class="st6" d="M2916 851.9h4"/><path class="st8" d="M699.8 851.9h1240.4"/><path class="st9" d="M680 851.9l27.9 11.3-6.7-11.3 6.7-11.4zm1280 0l-27.9 11.3 6.7-11.3-6.7-11.4z"/></g><g id="from_mob-s_until_ltp-m"><text transform="translate(91.252 787.875)" class="st4 st5">from mobile-s until ltp-m</text><path class="st6" d="M359 780.8h4"/><path class="st7" d="M371 780.8h2541"/><path class="st6" d="M2916 780.8h4"/><path class="st8" d="M699.8 780.8h1080.4"/><path class="st9" d="M680 780.8l27.9 11.4-6.7-11.4 6.7-11.3zm1120 0l-27.9 11.4 6.7-11.4-6.7-11.3z"/></g><g id="from_mob-s_until_ltp-s"><text transform="translate(101.764 716.852)" class="st4 st5">from mobile-s until ltp-s</text><path class="st6" d="M359 709.8h4"/><path class="st7" d="M371 709.8h2541"/><path class="st6" d="M2916 709.8h4"/><path class="st8" d="M699.8 709.8h920.4"/><path class="st9" d="M680 709.8l27.9 11.4-6.7-11.4 6.7-11.4zm960 0l-27.9 11.4 6.7-11.4-6.7-11.4z"/></g><g id="from_mob-s_until_tab-l"><path class="st6" d="M359 639.8h4"/><path class="st7" d="M371 639.8h2541"/><path class="st6" d="M2916 639.8h4"/><path class="st8" d="M699.8 639.8h664.4"/><path class="st9" d="M680 639.8l27.9 11.4-6.7-11.4 6.7-11.4zm704 0l-27.9 11.4 6.7-11.4-6.7-11.4z"/><text transform="translate(123.003 645.83)" class="st4 st5">from mob-s until tab-l</text></g><g id="from_mob-s_until_tab-m"><text transform="translate(108.651 574.809)" class="st4 st5">from mob-s until tab-m</text><path class="st6" d="M359 567.8h4"/><path class="st7" d="M371 567.8h2541"/><path class="st6" d="M2916 567.8h4"/><path class="st8" d="M699.8 567.8h408.4"/><path class="st9" d="M680 567.8l27.9 11.3-6.7-11.3 6.7-11.4zm448 0l-27.9 11.3 6.7-11.3-6.7-11.4z"/></g><g id="from_mob-s_until_tab-s"><text transform="translate(119.163 503.787)" class="st4 st5">from mob-s until tab-s</text><path class="st6" d="M359 496.7h4"/><path class="st7" d="M371 496.7h2541"/><path class="st6" d="M2916 496.7h4"/><path class="st8" d="M699.8 496.4h240.4"/><path class="st9" d="M680 496.4l27.9 11.4-6.7-11.4 6.7-11.4zm280 0l-27.9 11.4 6.7-11.4-6.7-11.4z"/></g><g id="from_mob-s_until_mob-l"><text transform="translate(109.323 432.765)" class="st4 st5">from mob-s until mob-l</text><path class="st6" d="M359 425.7h4"/><path class="st7" d="M371 425.7h2541"/><path class="st6" d="M2916 425.7h4"/><path class="st8" d="M699.8 425.7h65.4"/><path class="st9" d="M680 425.7l27.9 11.4-6.7-11.4 6.7-11.4zm105 0l-27.9 11.4 6.7-11.4-6.7-11.4z"/></g><g id="from_mob-s_until_mob-m"><text transform="translate(94.972 361.744)" class="st4 st5">from mob-s until mob-m</text><path class="st6" d="M359 355.7h4"/><path class="st7" d="M371 355.7h2541"/><path class="st6" d="M2916 355.7h4"/><path class="st8" d="M699.8 355.7h15.4"/><path class="st9" d="M680 355.7l27.9 11.4-6.7-11.4 6.7-11.4z"/><path class="st9" d="M735 355.7l-27.9 11.4 6.7-11.4-6.7-11.4z"/></g><g id="until_mob-s"><text transform="translate(227.425 290.722)" class="st4 st5">until mob-s</text><path class="st6" d="M359 283.7h4"/><path class="st7" d="M371 283.7h2541"/><path class="st6" d="M2916 283.7h4"/><path class="st8" d="M378.8 283.7h281.4"/><path class="st9" d="M359 283.7l27.9 11.4-6.7-11.4 6.7-11.4zm321 0l-27.9 11.4 6.7-11.4-6.7-11.4z"/></g></g></svg>