<svg xmlns="http://www.w3.org/2000/svg" viewBox="0 0 512 512"><path fill="#FFF" d="M445.1 447.4h-28.3c-1.7 0-2.9-1.2-2.9-2.9s1.2-2.9 2.9-2.9h28.3c1.7 0 2.9 1.2 2.9 2.9s-1.2 2.9-2.9 2.9zm-54.9 0H118.4c-1.7 0-2.9-1.2-2.9-2.9s1.2-2.9 2.9-2.9h271.8c1.7 0 2.9 1.2 2.9 2.9s-1.2 2.9-2.9 2.9zm-298.4 0H66.9c-1.7 0-2.9-1.2-2.9-2.9s1.2-2.9 2.9-2.9h24.9c1.7 0 2.9 1.2 2.9 2.9s-1.2 2.9-2.9 2.9z"/><path fill="#FFF" d="M256 448c-1.7 0-2.9-1.2-2.9-2.9V210.3L75 283.8l76.9 159.6c.6 1.2 0 2.9-1.2 4-1.7.6-2.9 0-4-1.2l-78.1-163v-2.4c0-.6.6-.6.6-1.2l.6-.6 184.5-75.8h2.4L441.8 279c.6 0 .6.6.6.6.6.6.6.6.6 1.2v2.4l-76.9 162.5c-.6 1.2-2.3 2.3-4 1.2-1.7-.6-2.3-2.3-1.2-4L437 283.2l-178.1-72.9v234.8c0 1.7-1.2 2.9-2.9 2.9zm122-149.2h-12.1c-1.7 0-2.9-1.2-2.9-2.9s1.2-2.9 2.9-2.9H378c1.7 0 2.9 1.2 2.9 2.9s-1.1 2.9-2.9 2.9zm-232.5 0h-12.1c-1.7 0-2.9-1.2-2.9-2.9s1.2-2.9 2.9-2.9h12.1c1.7 0 2.9 1.2 2.9 2.9s-1.1 2.9-2.9 2.9z"/><path fill="#FFF" d="M378 258.3c-1.7 0-2.9-1.2-2.9-2.9V160H136.3v95.4c0 1.7-1.2 2.9-2.9 2.9s-2.9-1.2-2.9-2.9v-98.3c0-1.7 1.2-2.9 2.9-2.9h49.2v-41.1c0-1.7 1.2-2.9 2.9-2.9h142.3c1.7 0 2.9 1.2 2.9 2.9v41.1H378c1.7 0 2.9 1.2 2.9 2.9v98.3c0 1.8-1.1 2.9-2.9 2.9zM188.3 154.2h136.5V116H188.3v38.2zm151.6 39.9c-1.7 0-2.9-1.2-2.9-2.9v-12.1c0-1.7 1.2-2.9 2.9-2.9s2.9 1.2 2.9 2.9v12.1c-.1 1.8-1.2 2.9-2.9 2.9zm-23.8 0c-1.7 0-2.9-1.2-2.9-2.9v-12.1c0-1.7 1.2-2.9 2.9-2.9s2.9 1.2 2.9 2.9v12.1c0 1.8-1.1 2.9-2.9 2.9zm-23.1 0c-1.7 0-2.9-1.2-2.9-2.9v-12.1c0-1.7 1.2-2.9 2.9-2.9s2.9 1.2 2.9 2.9v12.1c0 1.8-1.2 2.9-2.9 2.9zm-24.3 0c-1.7 0-2.9-1.2-2.9-2.9v-12.1c0-1.7 1.2-2.9 2.9-2.9s2.9 1.2 2.9 2.9v12.1c0 1.8-1.1 2.9-2.9 2.9zm-24.8 0c-1.7 0-2.9-1.2-2.9-2.9v-12.1c0-1.7 1.2-2.9 2.9-2.9s2.9 1.2 2.9 2.9v12.1c-.1 1.8-1.2 2.9-2.9 2.9zm-23.8 0c-1.7 0-2.9-1.2-2.9-2.9v-12.1c0-1.7 1.2-2.9 2.9-2.9s2.9 1.2 2.9 2.9v12.1c0 1.8-1.1 2.9-2.9 2.9zm-23.1 0c-1.7 0-2.9-1.2-2.9-2.9v-12.1c0-1.7 1.2-2.9 2.9-2.9s2.9 1.2 2.9 2.9v12.1c0 1.8-1.2 2.9-2.9 2.9zm-24.3 0c-1.7 0-2.9-1.2-2.9-2.9v-12.1c0-1.7 1.2-2.9 2.9-2.9s2.9 1.2 2.9 2.9v12.1c0 1.8-1.1 2.9-2.9 2.9z"/><path fill="#FFF" d="M256 115.5c-1.7 0-2.9-1.2-2.9-2.9V58.8c0-1.7 1.2-2.9 2.9-2.9h57.9c.6 0 .6 0 1.2.6.6 0 .6.6.6 1.2s.6.6.6 1.2v1.2s0 .6-.6.6L304 77.9h45.1c1.7 0 2.9 1.2 2.9 2.9s-1.2 2.9-2.9 2.9H297c-.6 0-.6 0-1.2-.6-.6 0-.6-.6-.6-1.2s-.6-.6-.6-1.2v-1.2s0-.6.6-.6l11.6-17.3h-48.6v50.9c.7 1.8-.5 3-2.2 3z"/></svg>