<svg xmlns="http://www.w3.org/2000/svg" viewBox="0 0 512 512"><path fill="#FFF" d="M348 446.8c-1.7 0-2.9-1.2-2.9-2.9V336.7h-42.9v107.2c0 1.7-1.2 2.9-2.9 2.9s-2.9-1.2-2.9-2.9V336.7h-93.9v107.2c0 1.7-1.2 2.9-2.9 2.9s-2.9-1.2-2.9-2.9V336.7h-45.8v107.2c0 1.7-1.2 2.9-2.9 2.9s-2.9-1.2-2.9-2.9V336.7h-20.9c-1.7 0-2.9-1.2-2.9-2.9v-36.5c0-1.7 1.2-2.9 2.9-2.9h247.5c1.7 0 2.9 1.2 2.9 2.9v36.5c0 1.7-1.2 2.9-2.9 2.9h-20.9v107.2c.1 1.8-1 2.9-2.8 2.9zM127.2 330.9h241.7v-30.7H127.2v30.7z"/><path fill="#FFF" d="M262.2 300.2c-1.7 0-2.9-1.2-2.9-2.9-.6-9.9 5.2-22 13.9-31.3 6.4-7 17.4-14.5 34.2-14.5 33 0 48.7 26.7 49.3 45.8 0 1.7-1.2 2.9-2.9 2.9s-2.9-1.2-2.9-2.9c-.6-16.8-14.5-40-43.5-40-14.5 0-24.3 7-30.1 12.8-8.7 9.3-12.2 20.3-12.2 27.2 0 1.7-1.1 2.9-2.9 2.9zm-11 0H136.5c-1.7 0-2.9-1.2-2.9-2.9v-66.7c0-1.7 1.2-2.9 2.9-2.9h114.8c1.7 0 2.9 1.2 2.9 2.9v66.7c-.1 1.7-1.2 2.9-3 2.9zm-111.8-5.8h109v-60.9h-109v60.9z"/><path fill="#FFF" d="M349.2 281.6s-.6 0 0 0c-1.2 0-1.2 0-1.7-.6-.6 0-.6-.6-.6-.6 0-.6-.6-.6-.6-1.2l-4.6-41.2-20.9 19.7c-1.2 1.2-2.9 1.2-4.1 0s-1.2-2.9 0-4.1l69.6-66.7.6-.6s.6 0 .6-.6h2.4l8.1 5.2.6.6c0 .6.6.6.6 1.2v1.2s0 .6-.6.6l-47.5 84.6c0 .6-.6.6-.6.6-.2 1.9-.2 1.9-1.3 1.9.6 0 0 0 0 0zm-1.8-43.4l3.5 31.3 11.6-20.3-15.1-11zm3.5-4.7l14.5 10.4 10.4-18.5-24.9 8.1zm16.8-20.8L353.8 226l22-7-8.1-6.3zm4.1-3.5l8.1 6.4 4.1-18-12.2 11.6zm18.5-15.7l-1.7 9.3 4.1-7.5-2.4-1.8zm-100.8 66.7c-1.2 0-2.3-1.2-2.9-2.3l-3.5-20.3-30.1 18c-1.2.6-2.9.6-4.1-1.2-.6-1.2-.6-2.9 1.2-4.1l30.1-18-64.3-51-8.7 50.4c0 1.7-1.7 2.9-3.5 2.3-1.7 0-2.9-1.7-2.3-3.5l9.3-54.5v-.6l9.9-57.4v-1.2l9.9-57.4h-11c-1.7 0-2.9-1.2-2.9-2.9V30.1c0-1.7 1.2-2.9 2.9-2.9h20.9V6.9c0-1.7 1.2-2.9 2.9-2.9s2.9 1.2 2.9 2.9v20.3h20.9c1.7 0 2.9 1.2 2.9 2.9v26.7c0 1.7-1.2 2.9-2.9 2.9h-11l10.4 56.8c.6.6.6 1.2.6 1.7v.6l20.9 113c.6.6.6 1.7.6 2.9l4.1 22.6c-.3 1.2-.9 2.3-3.2 2.9.6 0 0 0 0 0zM221.7 179l59.1 47-8.7-47h-50.4zm-1.8-5.7h51l-9.3-48.7-41.7 48.7zm5.8-52.8l-7.5 45.8 39.4-45.8h-31.9zm1.2-5.8h32.5l-23.8-49.3-8.7 49.3zm11.6-55.6L257 97.3 250 59h-11.5zm13.9-5.8H264V32.4h-41.7v20.9h30.1zm4.6-7.6h-27.2c-1.7 0-2.9-1.2-2.9-2.9s1.2-2.9 2.9-2.9H257c1.7 0 2.9 1.2 2.9 2.9s-1.1 2.9-2.9 2.9zm-93.9 227.8c-1.7 0-2.9-1.2-2.9-2.9v-20.9c0-1.7 1.2-2.9 2.9-2.9s2.9 1.2 2.9 2.9v20.9c0 1.8-1.1 2.9-2.9 2.9zm27.8 0c-1.7 0-2.9-1.2-2.9-2.9v-20.9c0-1.7 1.2-2.9 2.9-2.9s2.9 1.2 2.9 2.9v20.9c0 1.8-1.1 2.9-2.9 2.9zm30.2 0c-1.7 0-2.9-1.2-2.9-2.9v-20.9c0-1.7 1.2-2.9 2.9-2.9s2.9 1.2 2.9 2.9v20.9c0 1.8-1.2 2.9-2.9 2.9zM446 448h-28.4c-1.7 0-2.9-1.2-2.9-2.9s1.2-2.9 2.9-2.9H446c1.7 0 2.9 1.2 2.9 2.9s-1.2 2.9-2.9 2.9zm-55.1 0H118.5c-1.7 0-2.9-1.2-2.9-2.9s1.2-2.9 2.9-2.9h272.4c1.7 0 2.9 1.2 2.9 2.9s-1.1 2.9-2.9 2.9zm-299.1 0H66.9c-1.7 0-2.9-1.2-2.9-2.9s1.2-2.9 2.9-2.9h24.9c1.7 0 2.9 1.2 2.9 2.9s-1.1 2.9-2.9 2.9z"/></svg>