<svg xmlns="http://www.w3.org/2000/svg" viewBox="0 0 512 512"><path fill="#FFF" d="M445.1 448h-28.3c-1.7 0-2.9-1.2-2.9-2.9s1.2-2.9 2.9-2.9h28.3c1.7 0 2.9 1.2 2.9 2.9s-1.2 2.9-2.9 2.9zm-54.9 0H118.4c-1.7 0-2.9-1.2-2.9-2.9s1.2-2.9 2.9-2.9h271.8c1.7 0 2.9 1.2 2.9 2.9s-1.2 2.9-2.9 2.9zm-298.4 0H66.9c-1.7 0-2.9-1.2-2.9-2.9s1.2-2.9 2.9-2.9h24.9c1.7 0 2.9 1.2 2.9 2.9s-1.2 2.9-2.9 2.9z"/><path fill="#FFF" d="M236.3 448c-1.7 0-2.9-1.2-2.9-2.9l8.7-196.6c-6.4-4.6-11-12.1-11-20.8 0-13.9 11-24.9 24.9-24.9 13.9 0 24.9 11 24.9 24.9 0 13.9-11 24.9-24.9 24.9-2.9 0-5.8-.6-8.1-1.2l-8.7 193.7c0 1.7-1.1 2.9-2.9 2.9zM256 208.6c-10.4 0-19.1 8.7-19.1 19.1s8.7 19.1 19.1 19.1c10.4 0 19.1-8.7 19.1-19.1s-8.7-19.1-19.1-19.1zm16.8 238.8c-1.7 0-2.9-1.2-2.9-2.9l-5.8-189.7c0-1.7 1.2-2.9 2.9-2.9 1.2 0 2.9 1.2 2.9 2.9l5.8 189.7c0 1.8-1.2 2.9-2.9 2.9zM256 234c-4 0-6.9-2.9-6.9-6.9s2.9-6.9 6.9-6.9c2.3 0 4.6 1.2 5.8 2.9 1.2 1.2 1.2 2.9 1.2 4-.1 4-3.5 6.9-7 6.9zm0-8.1c-.6 0-1.2.6-1.2 1.2 0 1.2 2.3 1.2 2.3 0v-1.2c.1.6-.5 0-1.1 0z"/><path fill="#FFF" d="M274.5 213.2l-5.2-1.7 46.3-141.7 5.2 1.7-46.3 141.7zm-25.4-4l-5.2-2.3 9.8-21.4-16.2-23.1 59-100 5.2 2.9-57.3 97.2 15.6 22.6-10.9 24.1zm-39.9 68.2L93 276.8V271l112.8.6 12.1-24.9 26.6-2.9.6 5.8-23.1 2.9-12.8 24.9zM88.9 256.6l-1.2-5.8 145.7-30.7 1.2 5.8-145.7 30.7zm268.9 107l-98.3-112.2 4.6-4 98.3 112.2-4.6 4zm15.6-14.5L319 250.8l-27.2 1.7-15.6-21.4 4.6-3.5 13.3 19.1 27.2-1.7L378 346.8l-4.6 2.3z"/><path fill="#FFF" d="M202.2 390.2H201c-62.5-20.8-105.3-71.7-114.5-136.5 0-1.7 1.2-2.9 2.3-3.5 1.7 0 2.9 1.2 3.5 2.3 8.7 62.5 50.3 111.6 111 131.9 1.7.6 2.3 2.3 1.7 3.5-.5 1.7-1.6 2.3-2.8 2.3zm157.3-26.1c-.6 0-1.7-.6-2.3-1.2-1.2-1.2-.6-2.9.6-4 41.1-32.4 64.8-80.4 64.8-131.3 0-11-1.2-22-3.5-33-.6-1.7.6-2.9 2.3-3.5 1.7-.6 2.9.6 3.5 2.3 2.3 11.6 3.5 22.6 3.5 34.1 0 53.2-24.3 102.4-67.1 135.9-.6.7-1.2.7-1.8.7zm-144-13.8h-1.2c-37-11.6-71.1-44-79.2-75.2-.6-1.7.6-2.9 2.3-3.5 1.7-.6 2.9.6 3.5 2.3 8.1 29.5 40.5 60.1 75.8 71.7 1.7.6 2.3 2.3 1.7 3.5-.6.6-1.7 1.2-2.9 1.2zm138.2-39.4c-.6 0-1.2 0-1.7-.6-1.2-1.2-1.2-2.9 0-4 17.3-19.7 28.3-48.6 28.9-76.9-.6-.6-.6-1.2-.6-1.7 0-9.3-.6-17.3-2.3-24.3-.6-1.7.6-2.9 2.3-3.5 1.7-.6 2.9.6 3.5 2.3 1.7 6.9 2.3 14.5 2.3 23.1.6.6.6 1.2.6 1.7 0 30.7-11.6 61.3-30.1 82.7-1.1.7-2.3 1.2-2.9 1.2zM172.1 135.1c-.6 0-1.7-.6-2.3-1.2-1.2-1.2-1.2-2.9 0-4 24.3-21.4 53.8-32.4 85.6-32.4 8.7 0 17.9 1.2 20.8 1.7 1.7.6 2.3 1.7 2.3 3.5-.6 1.7-1.7 2.3-3.5 2.3-2.9-.6-11-1.7-19.7-1.7-30.1 0-58.4 11-82.1 31.2.1.6-.5.6-1.1.6zm-27.7-31.2c-.6 0-1.7-.6-2.3-1.2-1.2-1.2-1.2-2.9 0-4 30.7-27.8 71.1-42.8 113.3-42.8 22.6 0 43.4 4 63.6 12.1 1.7.6 2.3 2.3 1.7 4-.6 1.7-2.3 2.3-4 1.7-19.7-8.1-39.3-12.1-61.3-12.1-41.1 0-79.8 14.5-109.9 41.6 0 .7-.5.7-1.1.7z"/></svg>