<svg xmlns="http://www.w3.org/2000/svg" viewBox="0 0 512 512"><path d="M445.1 448h-28.3c-1.7 0-2.9-1.2-2.9-2.9s1.2-2.9 2.9-2.9h28.3c1.7 0 2.9 1.2 2.9 2.9s-1.2 2.9-2.9 2.9zm-55.4 0H118.3c-1.7 0-2.9-1.2-2.9-2.9s1.2-2.9 2.9-2.9h271.4c1.7 0 2.9 1.2 2.9 2.9s-1.2 2.9-2.9 2.9zm-298 0H66.9c-1.7 0-2.9-1.2-2.9-2.9s1.2-2.9 2.9-2.9h24.8c1.7 0 2.9 1.2 2.9 2.9s-1.2 2.9-2.9 2.9zm299.7-173.8h-9.8l-17.9-29.4c-7.5 2.9-13.9 6.9-20.8 10.4-13.3 7.5-25.4 13.9-42.7 13.9H155.8c-12.7 0-29.4-4-49.7-11-17.9-6.9-38.7-17.9-38.7-30 0-15.6 20.2-22.5 41.6-30.6l1.7-.6c18.5-6.4 34.1-10.4 56-10.4h3.5l9.8-42.7h22l.6 2.3c0 .6 8.1 31.2 28.9 40.4h72.2c23.7 0 34.6 6.9 46.2 13.9 4 2.3 8.1 5.2 12.7 6.9l19.1-31.2h9.8c5.2 0 14.4 0 14.4 9.8v30c2.3 0 4.6 0 6.9.6 4 0 7.5.6 11 .6v-27.7h5.8v28.3c9.2 1.2 15 2.9 15 8.1 0 5.8-5.8 8.1-15 9.2v8.7h-5.8v-8.1c-3.5 0-6.9.6-11 .6-2.3 0-4.6 0-6.9.6v27.7c-.1 9.7-9.3 9.7-14.5 9.7zm-6.3-5.8h6.4c7.5 0 8.7-.6 8.7-4v-27.7c-8.7.6-16.7 1.7-24.3 4-2.3.6-4.6 1.2-6.9 2.3l16.1 25.4zm-218.3-76.2c-20.8 0-36.4 4-53.7 10.4l-1.7.6c-19.1 6.9-37.5 13.3-37.5 24.8 0 6.4 13.3 16.2 35.2 24.3 19.1 6.9 35.8 11 47.4 11h144.4c15.6 0 26.6-6.4 39.8-13.3 9.2-5.2 20.2-11 34.1-15 11-3.5 25.4-4 37.5-4.6 9.8-.6 26.6-1.2 26.6-4.6-1.2-2.3-16.2-3.5-26-4-13.3-.6-28.3-1.2-39.8-4.6-11-3.5-18.5-8.1-26-12.1-11-6.9-21.4-13.3-43.3-13.3-19.6 0-120.7.6-133.4.6h-3.6zm201.5 17.3c1.7.6 4 1.7 6.4 2.3 7.5 2.3 16.7 3.5 26 4v-30c0-3.5-1.2-4-8.7-4h-6.4l-17.3 27.7zm-183.6-60l-8.7 37h44.5c-14.4-11-20.8-30-23.1-37h-12.7zm70.4 247.1c-41.6 0-64.7-39.8-65.3-41.6-.6-1.2-.6-2.9 1.2-4 1.2-.6 2.9-.6 4 1.2 0 .6 21.9 38.1 60.6 38.1 38.1 0 62.4-38.1 62.9-38.7.6-1.2 2.9-1.7 4-1.2 1.2.6 1.7 2.9 1.2 4-2.2 2.9-27 42.2-68.6 42.2zm0-34.1c-31.2 0-47.9-29.4-48.5-31.2-.6-1.2 0-2.9 1.2-4 1.2-.6 2.9 0 4 1.2 0 0 15.6 27.7 43.9 27.7 27.7 0 45-27.7 45.6-28.3.6-1.2 2.9-1.7 4-1.2 1.2.6 1.7 2.9 1.2 4-1.7 2.4-20.2 31.8-51.4 31.8zm.6-34.6c-20.2 0-31.2-19.1-31.2-20.2-.6-1.2-.6-2.9 1.2-4 1.2-.6 2.9-.6 4 1.2 0 0 9.8 16.7 26.6 16.7s27.7-16.7 27.7-17.3c.6-1.2 2.9-1.7 4-1.2 1.2.6 1.7 2.9 1.2 4-1.7 1.7-13.9 20.8-33.5 20.8z"/></svg>