<svg xmlns="http://www.w3.org/2000/svg" viewBox="0 0 512 512"><path d="M131 446.8h-1.2c-1.7-.6-2.3-2.3-1.7-4l60.6-135.7c.6-1.7 2.3-2.3 4-1.7 1.7.6 2.3 2.3 1.7 4l-60.6 135.7c-.5 1.2-1.7 1.7-2.8 1.7zm243.7 0c-1.2 0-2.3-.6-2.9-1.7L310 310.6c-.6-1.7 0-2.9 1.2-4 1.7-.6 2.9 0 4 1.2L377 442.2c.6 1.7 0 2.9-1.2 4-.6.6-.6.6-1.1.6z"/><path d="M312.9 312.3l-121.3-1.2c-1.7 0-2.9-1.2-2.9-2.9s1.2-2.9 2.9-2.9l121.3 1.2c1.7 0 2.9 1.2 2.9 2.9s-1.2 2.9-2.9 2.9zm47.9 103.9h-216c-1.7 0-2.9-1.2-2.9-2.9s1.2-2.9 2.9-2.9h216c1.7 0 2.9 1.2 2.9 2.9 0 1.8-1.2 2.9-2.9 2.9z"/><path d="M276.5 416.2c-1.7 0-2.9-1.2-2.9-2.9V308.8c0-1.7 1.2-2.9 2.9-2.9s2.9 1.2 2.9 2.9v104.5c0 1.8-1.2 2.9-2.9 2.9zm-44.5 0c-1.7 0-2.9-1.2-2.9-2.9V308.8c0-1.7 1.2-2.9 2.9-2.9s2.9 1.2 2.9 2.9v104.5c0 1.8-1.1 2.9-2.9 2.9z"/><path d="M232 416.2c-1.2 0-2.3-.6-2.9-1.7l-40.4-105.1c-.6-1.7 0-2.9 1.7-3.5 1.7-.6 2.9 0 3.5 1.7l40.4 105.1c.6 1.7 0 2.9-1.7 3.5h-.6zm44.5 0h-1.2c-1.7-.6-2.3-2.3-1.7-3.5L310 308.8c.6-1.7 2.3-2.3 3.5-1.7 1.7.6 2.3 2.3 1.7 3.5l-36.4 103.9c0 1.2-1.1 1.7-2.3 1.7z"/><path d="M191.6 311.1c-1.2 0-1.7-.6-2.3-1.7l-23.7-41c-.6-1.2-.6-2.9 1.2-4 1.2-.6 2.9-.6 4 1.2l23.1 41.6c.6 1.2.6 2.9-1.2 4 .1-.1-.5-.1-1.1-.1zm121.3 1.2c-.6 0-1.2 0-1.2-.6-1.2-.6-1.7-2.3-1.2-4l22.5-42.2c.6-1.2 2.3-1.7 4-1.2 1.2.6 1.7 2.3 1.2 4l-23.1 42.2c.1 1.2-1.1 1.8-2.2 1.8z"/><path d="M335.4 270.1H167.9c-1.7 0-2.9-1.2-2.9-2.9s1.2-2.9 2.9-2.9h167.5c1.7 0 2.9 1.2 2.9 2.9s-1.2 2.9-2.9 2.9z"/><path d="M232 270.1c-1.7 0-2.9-1.2-2.9-2.9V184c0-1.7 1.2-2.9 2.9-2.9s2.9 1.2 2.9 2.9v83.2c0 1.8-1.1 2.9-2.9 2.9zm44.5 0c-1.7 0-2.9-1.2-2.9-2.9V184c0-1.7 1.2-2.9 2.9-2.9s2.9 1.2 2.9 2.9v83.2c0 1.8-1.2 2.9-2.9 2.9z"/><path d="M276.5 187H232c-1.7 0-2.9-1.2-2.9-2.9s1.2-2.9 2.9-2.9h44.5c1.7 0 2.9 1.2 2.9 2.9s-1.2 2.9-2.9 2.9z"/><path d="M300.2 270.1c-1.2 0-2.3-.6-2.9-2.3l-23.7-83.2c-.6-1.7.6-2.9 1.7-3.5 1.7-.6 2.9.6 3.5 1.7l24.3 83.7c.6 1.7-.6 2.9-1.7 3.5-.6.1-1.2.1-1.2.1zm-97 0H202c-1.7-.6-2.3-2.3-1.7-3.5l28.9-83.2c.6-1.7 2.3-2.3 3.5-1.7 1.7.6 2.3 2.3 1.7 3.5l-28.9 83.2c0 1.2-1.2 1.7-2.3 1.7z"/><path d="M276.5 187c-.6 0-1.7 0-2.3-.6-1.2-1.2-1.2-2.9 0-4l28.9-28.9c1.2-1.2 2.9-1.2 4 0 1.2 1.2 1.2 2.9 0 4l-28.9 28.9c0 .6-1.1.6-1.7.6zm-44.5 0c-.6 0-1.7 0-2.3-.6L200.3 157c-1.2-1.2-1.2-2.9 0-4s2.9-1.2 4 0l29.4 29.4c1.2 1.2 1.2 2.9 0 4 .1.6-1.1.6-1.7.6z"/><path d="M305.4 158.1l-102.8-.6c-1.7 0-2.9-1.2-2.9-2.9s1.2-2.9 2.9-2.9l102.8.6c1.7 0 2.9 1.2 2.9 2.9s-1.2 2.9-2.9 2.9z"/><path d="M232 157.5c-1.7 0-2.9-1.2-2.9-2.9v-35.2c0-1.7 1.2-2.9 2.9-2.9s2.9 1.2 2.9 2.9v35.2c0 1.8-1.1 2.9-2.9 2.9zm44.5 0c-1.7 0-2.9-1.2-2.9-2.9v-35.2c0-1.7 1.2-2.9 2.9-2.9s2.9 1.2 2.9 2.9v35.2c0 1.8-1.2 2.9-2.9 2.9z"/><path d="M276.5 122.3H232c-1.7 0-2.9-1.2-2.9-2.9s1.2-2.9 2.9-2.9h44.5c1.7 0 2.9 1.2 2.9 2.9 0 1.8-1.2 2.9-2.9 2.9zm-5.8-25.4c-.6 0-1.7-.6-2.3-1.2-1.2-1.2-.6-2.9.6-4 2.3-2.3 11-9.8 11.5-19.6 0-5.8-2.3-11-7.5-16.7-13.3-13.3-21.4-27.1-24.3-37-1.7 2.3-4 4.6-6.9 8.1-8.7 9.2-20.2 21.9-20.8 31.8-.6 16.2 15 33.5 15.6 33.5 1.2 1.2 1.2 2.9 0 4s-2.9 1.2-4 0c-.6-.6-17.3-19.6-16.7-38.1.6-11.5 12.7-24.8 22.5-35.2 4.6-4.6 9.8-10.4 9.8-12.1s1.7-2.3 2.9-2.3c1.7 0 2.9 1.2 2.9 2.9 0 5.8 5.2 21.9 24.3 40.4 6.4 6.4 9.8 13.3 9.2 20.8-.6 11.5-9.8 20.8-13.3 23.7-2.3 1-2.9 1-3.5 1zM91.1 448H66.9c-1.7 0-2.9-1.2-2.9-2.9s1.2-2.9 2.9-2.9h24.3c1.7 0 2.9 1.2 2.9 2.9-.1 1.7-1.2 2.9-3 2.9zm298.6 0H118.3c-1.7 0-2.9-1.2-2.9-2.9s1.2-2.9 2.9-2.9h271.4c1.7 0 2.9 1.2 2.9 2.9s-1.2 2.9-2.9 2.9zm55.4 0h-28.3c-1.7 0-2.9-1.2-2.9-2.9s1.2-2.9 2.9-2.9h28.3c1.7 0 2.9 1.2 2.9 2.9s-1.2 2.9-2.9 2.9z"/></svg>