<svg xmlns="http://www.w3.org/2000/svg" viewBox="0 0 512 512"><path d="M445.1 448h-28.3c-1.7 0-2.9-1.2-2.9-2.9s1.2-2.9 2.9-2.9h28.3c1.7 0 2.9 1.2 2.9 2.9s-1.2 2.9-2.9 2.9zm-55.4 0H118.3c-1.7 0-2.9-1.2-2.9-2.9s1.2-2.9 2.9-2.9h271.4c1.7 0 2.9 1.2 2.9 2.9s-1.2 2.9-2.9 2.9zm-298 0H66.9c-1.7 0-2.9-1.2-2.9-2.9s1.2-2.9 2.9-2.9h24.8c1.7 0 2.9 1.2 2.9 2.9s-1.2 2.9-2.9 2.9zm17.9-31.2l-.6-5.8c0-.6-1.7-14.4 1.2-23.7-12.1-5.8-17.3-16.7-17.3-17.3l-1.7-4h4s24.3-1.2 31.8-2.3c4-5.8 13.3-16.2 17.9-20.8-3.5-1.7-8.1-5.2-12.1-7.5l-3.5-1.7 2.9-2.9c7.5-6.9 15.6-11.5 24.8-17.3l5.8-3.5c9.2-5.2 17.3-2.9 24.3 7.5 34.1-6.9 53.7 12.7 54.3 13.3l1.2 1.2v1.2c-3.5 27.1-16.7 39.8-28.9 47.4 1.7 4.6 1.2 9.2-1.2 13.3-8.7 15-44.5 16.7-48.5 16.7h-4l1.2-4s1.7-6.9 3.5-13.3c-8.7 0-23.1-2.3-28.3-2.9l-26.8 26.4zm63.5-28.9l-1.2 4.6c-1.2 4-2.3 9.8-3.5 13.3 12.1-1.2 34.6-4.6 39.8-13.9 1.7-2.9 1.7-6.4 0-9.8l-1.2-2.3 2.3-1.2c11-6.9 24.3-17.9 27.7-43.3-4-4-21.9-17.3-50.2-10.4l-1.7.6-1.2-1.7c-4-6.4-9.2-12.1-17.3-6.9l-5.8 3.5c-8.1 4.6-15 8.7-20.8 13.9 5.2 3.5 11.5 7.5 11.5 7.5l2.9 1.7-2.3 1.2s-16.7 17.3-20.2 23.7l-.6 1.2h-1.2c-4.6 1.2-20.8 1.7-28.9 2.3 2.3 3.5 6.9 8.7 14.4 11.5l2.9 1.2-1.7 2.9c-2.3 4-2.9 11.5-2.3 17.3l20.8-19.6h1.2c10.4 1.7 27.7 3.5 31.8 2.9l4.8-.2zm32.4-33.4c-1.2 0-2.9-.6-4-1.2-2.9-1.2-4.6-3.5-5.8-5.8s-.6-5.2.6-6.9c1.2-2.9 3.5-4.6 5.8-5.8 2.3-1.2 4.6-.6 6.9.6 2.9 1.2 4.6 3.5 5.8 5.8s.6 5.2-.6 6.9c-1.2 2.9-3.5 4.6-5.8 5.8-1.2.6-1.8.6-2.9.6zm-.6-14.5h-1.2c-1.2.6-2.3 1.2-2.9 2.9-.6 1.2-.6 1.7 0 2.9s1.2 2.3 2.9 2.9c1.2.6 1.7.6 2.9 0s2.3-1.2 2.9-2.9c.6-1.2.6-1.7 0-2.9s-1.2-2.3-2.9-2.9h-1.7zm5.8-42.1l-.6-5.2c0-.6-.6-5.2.6-9.2-4.6-2.9-6.9-6.9-6.9-6.9l-2.3-4h4.6c3.5 0 9.2 0 12.1-.6 1.7-2.3 4-4.6 5.8-6.9-1.2-.6-2.3-1.7-2.9-1.7l-4-2.3 2.9-2.9c3.5-3.5 7.5-5.8 13.3-9.2 2.9-1.7 7.5-2.3 12.1 2.9 14.4-2.9 23.1 5.8 23.7 6.4l1.2 1.2v1.2c-1.2 12.1-7.5 17.3-11.5 20.2.6 2.3 0 4-.6 5.2-4 6.9-19.1 8.1-21.9 8.1h-4l1.2-4s.6-1.7 1.2-4c-2.9 0-6.9-.6-9.2-1.2l-14.8 12.9zm29.4-17.4l-.6 4c0 1.2-.6 2.3-.6 3.5 5.2-.6 11.5-2.3 13.3-4.6 0 0 .6-.6-.6-2.3l-1.2-2.3 2.3-1.7c4.6-2.9 9.2-6.4 10.4-16.2-2.3-1.7-8.7-5.8-19.1-3.5l-1.7.6-1.2-1.7c-2.3-2.9-3.5-3.5-5.2-2.3-4 2.3-6.9 4-9.2 5.8 1.7 1.2 2.9 2.3 2.9 2.3l2.9 1.7-2.3 2.9c-2.3 2.3-6.9 7.5-8.1 9.2l-.6 1.2h-1.2c-1.7.6-4.6.6-8.1.6.6.6 1.7 1.2 2.9 1.7l3.5 1.2-2.9 2.9c-.6.6-.6 1.7-.6 2.3l6.9-5.8h1.2c5.2.6 11.5 1.7 12.7 1.2l4.2-.7zm-112-94.7l-1.2-5.8c0-1.2-1.7-10.4 0-17.3-9.2-4-13.9-11.5-13.9-11.5l-2.3-4 4.6-.6c5.2-.6 18.5-2.3 23.1-2.9 2.9-4.6 8.7-12.1 12.1-15.6-2.3-1.2-5.8-3.5-8.7-4.6l-3.5-1.7 2.3-2.9c5.8-6.4 13.3-11.5 21.9-17.3 3.5-2.3 6.9-2.9 10.4-2.3 4.6 1.2 7.5 4 9.2 6.4 24.8-6.9 40.4 6.4 41 6.9l1.2 1.2v1.2c-1.2 21.4-12.7 31.8-19.6 37.5 1.7 4 1.2 7.5 0 9.8-5.8 12.1-32.9 15-35.8 15.6l-3.5.6.6-3.5s.6-4.6 1.7-9.2c-6.4.6-15.6 0-19.6-.6l-20 20.6zm-6.9-34c2.3 2.3 5.8 5.2 10.4 6.4l2.9 1.2-1.2 2.9c-1.2 2.9-1.2 6.9-1.2 11l13.3-14.4h1.2c8.1.6 20.2 1.2 23.1 0l5.2-1.7-1.2 5.2c-.6 2.9-1.2 6.4-1.7 9.2 10.4-1.7 24.8-5.8 27.7-11.5.6-1.2 1.2-3.5-.6-6.4l-1.7-2.3 1.7-1.7c9.2-6.9 17.9-16.2 19.1-33.5-3.5-2.9-16.7-11-36.4-4.6l-2.3.6-.6-1.2c-.6-.6-2.9-4.6-6.9-5.8-1.7-.6-4 0-5.8 1.2-7.5 4.6-13.3 8.7-18.5 13.9 4 2.3 8.1 4.6 8.1 4.6l2.9 1.7-2.3 2.9c-2.9 3.5-11.5 13.9-13.9 18.5l-.6 1.2h-1.2c-2.8.3-13.2 2-19.5 2.6zm82.5-19.1c-1.2 0-1.7 0-2.9-.6-4.6-1.7-6.9-6.4-5.2-11 1.7-4.6 6.4-6.9 10.4-5.2 4 1.2 6.4 5.2 5.2 10.4v.6c-1.1 3.5-4 5.8-7.5 5.8zm0-11.5c-1.2 0-1.7 1.2-2.3 1.7v1.7l1.7 1.7h1.7c.6-.6 1.2-.6 1.2-1.7 0-1.2 0-2.9-1.2-3.5h-.6c.1.1-.5.1-.5.1z"/><path d="M425.5 343.5h-127c-8.1 0-14.4-6.4-14.4-14.4V213.6c-8.7 12.1-20.2 19.1-32.9 19.1-13.9 0-27.1-8.7-35.8-23.7-8.1 15-20.8 24.3-34.6 24.3-14.4 0-27.7-8.7-36.4-24.3-6.9 13.9-17.9 22.5-31.2 23.7-14.4 1.2-28.9-6.4-35.8-19.1-.6-1.2 0-2.9 1.2-4 1.2-.6 2.9 0 4 1.2 5.8 10.4 18.5 17.3 30.6 16.2 12.7-1.2 23.1-10.4 28.3-25.4.6-1.2 1.2-1.7 2.9-1.7 1.2 0 2.3.6 2.9 1.7 6.9 16.7 19.6 26.6 33.5 26.6 13.3 0 25.4-9.8 31.8-26.6.6-1.2 1.7-1.7 2.3-1.7 1.2 0 2.3.6 2.9 1.7 7.5 16.2 19.6 25.4 33.5 25.4 13.3 0 25.4-9.2 32.9-24.8v-59.5c0-8.1 6.4-14.4 14.4-14.4h127c8.1 0 14.4 6.4 14.4 14.4V329c-.1 8.1-6.4 14.5-14.5 14.5zM289.8 202.6V329c0 4.6 4 8.7 8.7 8.7h127c4.6 0 8.7-4 8.7-8.7V142.5c0-4.6-4-8.7-8.7-8.7h-127c-4.6 0-8.7 4-8.7 8.7v60.1zm73.9 129.9c-3.5 0-7.5-2.9-7.5-7.5 0-3.5 2.9-7.5 7.5-7.5s7.5 2.9 7.5 7.5c0 3.5-2.9 7.5-7.5 7.5zm0-9.2c-1.2 0-1.7 1.2-1.7 1.7 0 1.2 1.2 1.7 1.7 1.7 1.2 0 1.7-1.2 1.7-1.7 0-1.2-.6-1.7-1.7-1.7zm60-12.2H300.2c-1.7 0-2.9-1.2-2.9-2.9v-161c0-1.7 1.2-2.9 2.9-2.9h123.6c1.7 0 2.9 1.2 2.9 2.9v161.1c-.1 1.7-1.2 2.8-3 2.8zm-120.6-5.7h117.8V150H303.1v155.4z"/><path d="M402.4 311.1c-1.7 0-2.9-1.2-2.9-2.9V177.8c0-1.7 1.2-2.9 2.9-2.9s2.9 1.2 2.9 2.9v130.5c0 1.7-1.2 2.8-2.9 2.8zm-24.8 0c-1.7 0-2.9-1.2-2.9-2.9v-80.8c0-1.7 1.2-2.9 2.9-2.9s2.9 1.2 2.9 2.9v80.8c-.1 1.8-1.2 2.9-2.9 2.9zm-27.8 0c-1.7 0-2.9-1.2-2.9-2.9V213c0-1.7 1.2-2.9 2.9-2.9s2.9 1.2 2.9 2.9v95.3c0 1.7-1.1 2.8-2.9 2.8zm-24.8 0c-1.7 0-2.9-1.2-2.9-2.9v-80.8c0-1.7 1.2-2.9 2.9-2.9s2.9 1.2 2.9 2.9v80.8c0 1.8-1.2 2.9-2.9 2.9z"/></svg>