<svg xmlns="http://www.w3.org/2000/svg" viewBox="0 0 512 512"><path fill="#FFF" d="M445.1 448h-28.3c-1.7 0-2.9-1.2-2.9-2.9s1.2-2.9 2.9-2.9h28.3c1.7 0 2.9 1.2 2.9 2.9s-1.2 2.9-2.9 2.9zm-55.4 0H118.3c-1.7 0-2.9-1.2-2.9-2.9s1.2-2.9 2.9-2.9h271.4c1.7 0 2.9 1.2 2.9 2.9s-1.2 2.9-2.9 2.9zm-298 0H66.9c-1.7 0-2.9-1.2-2.9-2.9s1.2-2.9 2.9-2.9h24.8c1.7 0 2.9 1.2 2.9 2.9s-1.2 2.9-2.9 2.9zm165.2-91.2c-67 0-121.3-54.3-121.3-120.7s54.3-120.7 120.7-120.7c67 0 121.3 54.3 121.3 120.7s-54.3 120.7-120.7 120.7zm-.6-235.6c-63.5 0-114.9 51.4-114.9 114.9S193.3 351 256.9 351s114.9-51.4 114.9-114.9-52-114.9-115.5-114.9z"/><path fill="#FFF" d="M366.6 245.9c-8.1 0-20.8-.6-26-5.8l-3.5-3.5c-5.2-5.8-7.5-8.1-12.7-6.4-11.5 4-20.8 4.6-28.3 2.3-5.8-1.7-11.5-8.7-16.7-15.6-3.5-4-6.9-8.7-9.2-10.4-5.2-4-26.6-3.5-39.3-2.3-.6 0-1.7 0-2.3-.6-.6-.6-1.2-1.2-1.2-1.7-.6-10.4 1.7-17.9 6.4-23.7 8.1-8.1 20.8-7.5 26.6-7.5h2.3c2.3 0 4-2.9 6.4-6.4 1.2-2.3 2.9-4.6 4.6-6.4 2.9-2.9 11-2.3 21.9-1.2 3.5.6 7.5.6 8.7.6 2.3-.6 9.8-9.2 15.6-19.1 1.2-1.2 2.9-1.7 4-.6 1.2.6 1.7 2.9.6 4-4 6.4-13.9 20.8-20.2 21.4-2.3 0-5.8 0-10.4-.6-5.2-.6-15.6-1.7-17.9 0-1.2 1.2-2.3 2.9-3.5 4.6-2.3 4-5.2 8.7-11 9.2h-2.3c-5.8 0-16.2-.6-21.9 5.8-3.5 3.5-5.2 9.2-5.2 16.2 9.2-.6 32.9-1.7 39.8 3.5 3.5 2.3 6.9 6.9 10.4 11.5 4.6 5.8 9.8 12.7 13.9 13.9 6.4 2.3 14.4 1.2 24.8-2.3 9.2-2.9 13.9 2.3 19.1 8.1 1.2 1.2 1.7 2.3 2.9 3.5 4 4 19.6 4.6 28.9 4 1.7 0 2.9 1.2 2.9 2.9s-1.2 2.9-2.9 2.9c1.6-.3-1.3-.3-5.3-.3zM161 236.1h-22.5c-1.7 0-2.9-1.2-2.9-2.9s1.2-2.9 2.9-2.9h19.6c0-10.4 2.9-18.5 8.1-24.3 5.2-5.2 12.1-6.9 15.6-6.9 0-6.9-1.7-12.7-5.2-16.2-7.5-7.5-20.8-5.2-20.8-5.2-1.7 0-2.9-1.2-3.5-2.3 0-1.7 1.2-2.9 2.3-3.5.6 0 16.2-2.3 26 6.9 5.8 5.2 8.1 13.3 6.9 23.1 0 1.7-1.7 2.9-2.9 2.9 0 0-8.1-.6-14.4 5.2-4.6 4.6-6.9 12.1-6.4 22.5 0 .6 0 1.7-.6 2.3-.5.7-1.6 1.3-2.2 1.3zm12.7 87.2c-1.2 0-2.3-.6-2.3-1.7-.6-1.2 0-2.9 1.2-4 3.5-1.7 9.8-8.7 9.8-11v-23.7c0-.6.6-1.7 1.2-2.3 6.9-5.8 11-14.4 8.7-20.2-1.7-5.2-8.1-8.7-17.9-9.2-26-1.7-30 11.5-30 11.5-.6 1.7-1.7 2.3-3.5 2.3-1.7-.6-2.3-1.7-2.3-3.5 0-.6 5.2-17.9 35.8-16.2 16.2 1.2 21.4 7.5 23.1 13.3 2.3 8.1-1.2 18.5-9.8 25.4v23.1c0 5.8-9.8 14.4-13.3 15.6.5.6-.1.6-.7.6zm99.3 8.1c-5.2 0-10.4-.6-12.7-1.2-1.7 0-2.3-1.7-2.3-2.9 0 0 1.2-27.7.6-42.7 0-2.3-1.2-4-2.3-5.8-5.2-4.6-18.5-3.5-23.1-2.9H232c-1.7 0-2.9-.6-4-1.2-2.9-2.9-2.3-8.1-1.7-14.4 0-3.5.6-6.9 0-9.2-.6-7.5 4-10.4 7.5-13.3 1.7-1.2 3.5-2.3 4.6-3.5 5.2-5.2 16.7-4.6 27.1-4h6.9c8.7 0 20.2 12.7 30 25.4l1.2 1.2c4 4.6 3.5 19.6 1.2 41.6 0 2.3-.6 4-.6 4.6-.6 8.7-19.1 24.3-22.5 26-2.3 1.7-5.2 2.3-8.7 2.3zm-9.2-6.4c6.4.6 12.7 1.2 14.4 0 4.6-2.3 19.1-16.2 19.6-21.4 0-1.2 0-2.9.6-5.2.6-8.1 3.5-33.5 0-37.5l-1.2-1.2c-12.1-15.6-20.8-23.1-26-23.1h-6.9c-7.5-.6-19.6-1.2-22.5 2.3-1.7 1.7-3.5 3.5-5.2 4.6-3.5 2.9-5.8 4-5.2 7.5.6 2.9 0 6.4 0 10.4 0 2.9-.6 8.1 0 9.8h.6c5.8-.6 20.2-2.3 27.7 4 2.9 2.3 4.6 5.8 4.6 9.8.7 11.7.1 32.5-.5 40zm-8.7 102.2c-1.7 0-2.9-1.2-2.9-2.9v-46.2c0-1.7 1.2-2.9 2.9-2.9s2.9 1.2 2.9 2.9v46.2c0 1.8-1.1 2.9-2.9 2.9zm18.5-28.9c-1.7 0-2.9-1.2-2.9-2.9v-23.1c0-1.7 1.2-2.9 2.9-2.9s2.9 1.2 2.9 2.9v23.1c0 1.8-1.2 2.9-2.9 2.9zm-36.9 0c-1.7 0-2.9-1.2-2.9-2.9v-23.1c0-1.7 1.2-2.9 2.9-2.9s2.9 1.2 2.9 2.9v23.1c-.1 1.8-1.2 2.9-2.9 2.9z"/></svg>