<svg xmlns="http://www.w3.org/2000/svg" viewBox="0 0 512 512"><path fill="#FFF" d="M445.1 448h-28.3c-1.7 0-2.9-1.2-2.9-2.9s1.2-2.9 2.9-2.9h28.3c1.7 0 2.9 1.2 2.9 2.9s-1.2 2.9-2.9 2.9zm-55.4 0H118.3c-1.7 0-2.9-1.2-2.9-2.9s1.2-2.9 2.9-2.9h271.4c1.7 0 2.9 1.2 2.9 2.9s-1.2 2.9-2.9 2.9zm-298 0H66.9c-1.7 0-2.9-1.2-2.9-2.9s1.2-2.9 2.9-2.9h24.8c1.7 0 2.9 1.2 2.9 2.9s-1.2 2.9-2.9 2.9z"/><path fill="#FFF" d="M351.6 448c-1.2 0-2.3-.6-2.9-1.7L299 328.5l-39.3 39.3 73.9 73.3c1.2 1.2 1.2 2.9 0 4-1.2 1.2-2.9 1.2-4 0l-73.9-73.9-73.9 73.9c-1.2 1.2-2.9 1.2-4 0s-1.2-2.9 0-4l73.9-73.3-39.3-39.3-49.1 116.1c-.6 1.7-2.3 2.3-4 1.7-1.7-.6-2.3-2.3-1.7-4l50.2-119c0-1.2 0-1.7.6-2.9.6-.6 1.7-1.2 2.3-.6h1.2c.6.6 1.7 1.2 1.7 1.7l41.6 41 41.6-41c0-.6.6-1.7 1.7-1.7h1.2c.6 0 1.7 0 2.3.6s1.2 1.7.6 2.9L353.3 444c.6 1.7 0 2.8-1.7 4 .5 0 .5 0 0 0zm-186-211.3c-1.7 0-2.9-1.2-2.9-2.9V224h-20.2v9.8c0 1.7-1.2 2.9-2.9 2.9s-2.9-1.2-2.9-2.9V224h-3.5c-.6 0-.6-.6-1.2-.6 0 0-.6-.6-.6-1.2v-2.4c0-.6.6-.6.6-1.2l75.6-75.6c1.7-11 16.2-94.1 47.4-94.1s46.2 82 47.9 93.5l76.2 76.2s.6.6.6 1.2v2.4c0 .6-.6.6-.6 1.2 0 0-.6.6-1.2.6H168.5v9.8c0 1.7-1.1 2.9-2.9 2.9zm0-18.5H370l-71-71h-86.6l-71 71h24.2zm48.5-76.8h82.6c-2.9-15.6-17.9-86-41.6-86-21.3-.1-36.3 59.4-41 86z"/><path fill="#FFF" d="M347.5 236.7c-1.7 0-2.9-1.2-2.9-2.9v-12.7c0-1.7 1.2-2.9 2.9-2.9s2.9 1.2 2.9 2.9v12.7c0 1.7-1.1 2.9-2.9 2.9zm26 0c-1.7 0-2.9-1.2-2.9-2.9v-12.7c0-1.7 1.2-2.9 2.9-2.9s2.9 1.2 2.9 2.9v12.7c0 1.7-1.2 2.9-2.9 2.9z"/><path fill="#FFF" d="M165.6 327.3c-1.7 0-2.9-1.2-2.9-2.9v-11h-20.2v11c0 1.7-1.2 2.9-2.9 2.9s-2.9-1.2-2.9-2.9v-11h-3.5c-.6 0-.6-.6-.6-.6l-.6-.6v-2.4c0-.6.6-.6.6-1.2l76.2-76.2v-89.5c0-.6.6-.6.6-1.2l.6-.6c.6-.6 1.7-.6 2.3 0 .6 0 .6.6.6.6l42.7 42.7 41.6-41.6c.6-1.2 1.7-2.3 2.9-2.3.6 0 1.7 0 2.3.6 1.2 1.2 1.2 2.9 0 4V232l76.2 75.1c.6.6 1.2 1.7.6 2.9v.6c0 1.7-1.2 2.9-2.9 2.9v9.8c0 1.7-1.2 2.9-2.9 2.9s-2.9-1.2-2.9-2.9v-9.8h-20.2v9.8c0 1.7-1.2 2.9-2.9 2.9s-2.9-1.2-2.9-2.9v-9.8h-41.6v9.2c0 .6 0 1.7-.6 2.3-1.2 1.2-2.9 1.2-4 0l-12.1-12.1h-60.6l-12 12.1c-1.2 1.2-2.9 1.2-4 0v-.6c-.6-.6-1.2-1.2-1.2-2.3v-9.2h-39.8v11.5c-.1 1.8-1.2 2.9-3 2.9zm48.5-13.8v3.5l3.5-3.5h-3.5zm80.3 0l2.9 2.9v-2.9h-2.9zm53.1-5.8h23.1L303 240.1v67.6h44.5zm-58.9 0h8.7v-65.8l-37 37 28.3 28.8zm-57.1 0h49.1l-24.8-24.3-24.3 24.3zm-17.4 0h9.2l28.3-28.9-37.5-37.5v66.4zm-72.7 0h67v-67l-67 67zm73.9-73.9l41 41 41-41-41.6-40.4-40.4 40.4zm-1.2-82.6v75.6l37.5-37.5-37.5-38.1zm46.2 37.5l37 37v-73.9l-37 36.9z"/></svg>