<svg xmlns="http://www.w3.org/2000/svg" viewBox="0 0 278 278"><g fill="#FFF"><path d="M110.5 156c-26 0-34.6 8.7-34.6 23.8 0 13 6.5 21.6 26 21.6 23.8 0 34.6-17.3 34.6-32.5v-8.7l-2.2-2.2c0 .2-10.8-2-23.8-2z"/><path d="M0 0v278h278V0H0zm149.5 207.9l-2.2 2.2h-6.5l-2.2-2.2-2.2-10.8h-2.2c-4.3 6.5-13 15.1-34.6 15.1-23.8 0-36.8-13-36.8-32.5 0-23.8 17.3-34.6 45.4-34.6 8.7.1 17.4.8 26 2.2l2.2-2.2v-6.5c0-19.5-6.5-28.1-28.1-28.1s-28.1 10.8-28.1 21.6l-2.2 2.2h-8.7l-2.2-2.2c0-17.3 13-32.5 41.1-32.5 32.5 0 41.1 15.1 41.1 39v69.3h.2zm50.8 0l-2.2 2.2h-8.7l-2.2-2.2V104.1l2.2-2.2h8.7l2.2 2.2v103.8zm0-125.5l-2.2 2.2h-8.7l-2.2-2.2v-13l2.2-2.2h8.7l2.2 2.2v13z"/></g></svg>