<svg data-name="Layer 1" xmlns="http://www.w3.org/2000/svg" viewBox="0 0 28.05 47.57"><g fill="#fff"><path d="M13.48 45.36c.32-.52.62-1 .9-1.5.11-.19.06-.3-.17-.38-.74-.24-1.07-.76-.91-1.37a1.31 1.31 0 011.29-1h.21a1.32 1.32 0 011.28 1.36 1.35 1.35 0 01-.08.4 4.59 4.59 0 01-.76 1.39 3.89 3.89 0 01-1.71 1.1m-9.93 0a3.08 3.08 0 01-1.91-3.9 3.32 3.32 0 01.25-.54 4.91 4.91 0 012.18-2 9.67 9.67 0 014.42-1h.38a23.27 23.27 0 012.62.27 4 4 0 01.5.11l-.33.17A7 7 0 008.9 40.6a.44.44 0 01-.36.19h-.11a6.74 6.74 0 00-1-.08 4.73 4.73 0 00-2.49.67 2.94 2.94 0 00-1.62 2.94 7 7 0 00.26 1m17.91-.71a.3.3 0 01-.25-.17A5.7 5.7 0 0120 40.9v-5.31a6.73 6.73 0 00-.07-1 2.66 2.66 0 00-1.3-2l.06-.12c.94.37 1.91.68 2.82 1.12a3.1 3.1 0 011.86 3v2.22a6.54 6.54 0 001.15 3.83l.12.19v.1l-.3.19c-.86.46-1.73.91-2.59 1.39a.49.49 0 01-.24.08M15 37.69l-4.51-1c.69-.36 1.37-.75 2.07-1.08a.75.75 0 00.44-.81v-5.27a.54.54 0 01.34-.59c.54-.25 1-.54 1.63-.85v9.6M16.53 32v-4.37a.46.46 0 01.36-.51 1.79 1.79 0 01.61-.12c.64 0 1 .46 1 1.31v2.26a.5.5 0 01-.31.53c-.55.27-1.09.58-1.7.91M20 30.17a1.19 1.19 0 00-.05-.44v-1.54a2 2 0 00-1.15-2.05 10.56 10.56 0 012.68-1.25 2.12 2.12 0 01.44-.05 1.35 1.35 0 011.39 1.31v.09a16.68 16.68 0 010 2l-.16.31L20 30.17M8 28.73c.25 0 .34-.13.33-.43v-4a.55.55 0 01.35-.57c1-.5 1.9-1 2.91-1.57v12.06a.59.59 0 01-.38.6c-1 .48-1.89 1-2.91 1.53v-5.54c0-.33-.09-.43-.39-.43H4.8a1.52 1.52 0 01.57-1.06 2.77 2.77 0 011.88-.57H8m5.07-1.13a2.81 2.81 0 010-.41v-5.46a.55.55 0 01.35-.58c.54-.26 1-.54 1.63-.85v5.9a.54.54 0 01-.34.55c-.53.26-1.05.55-1.63.85m7-6.55c0-1.12 0-2.17-1.22-2.74a5.86 5.86 0 01.78-.42 10.57 10.57 0 011.8-.68 1.31 1.31 0 01.39-.05 1.41 1.41 0 011.36 1.43 1 1 0 01-.67 1.18c-.81.36-1.58.82-2.44 1.28m1.67-5.2a4.94 4.94 0 00-2.28.63L7.27 23a.54.54 0 00-.32.56v3.54c0 .32-.09.41-.41.48a5.78 5.78 0 00-1.71.54A3.79 3.79 0 003 31.23c0 .3 0 .42.34.42H6.5c.34 0 .43.13.42.48v4.18c0 .38-.13.47-.46.55a17.6 17.6 0 00-2.37.63 6.56 6.56 0 00-3.42 2.64 4 4 0 00.54 5.11 6.23 6.23 0 002.47 1.56 13.59 13.59 0 004.6.77 14.82 14.82 0 002-.13A12.06 12.06 0 0015 46a5 5 0 002.18-2.35 2.6 2.6 0 00-1.08-3.3 3 3 0 00-1.52-.44 3.26 3.26 0 00-1.27.28A2.4 2.4 0 0011.86 42a2.14 2.14 0 00.87 2.07 2.11 2.11 0 01-.28.45A8.22 8.22 0 0111 45.7a5.9 5.9 0 01-2.67.64 6.9 6.9 0 01-1.86-.26 3.22 3.22 0 01-1.36-.87A1.58 1.58 0 015.1 43a3.45 3.45 0 011.12-.77A3.36 3.36 0 017.45 42a4.79 4.79 0 011.55.25h.18c.12 0 .2-.06.31-.19a11.73 11.73 0 011.34-1.56 7.89 7.89 0 015.25-1.89c.34 0 .46-.1.46-.47v-4.3c0-.33.13-.44.43-.47h.13a1.26 1.26 0 011.23.94 5.87 5.87 0 01.21 1.56v3.5a18 18 0 00.18 2.93 8.43 8.43 0 002 3.79c.11.14.2.2.31.2a.62.62 0 00.27-.09c2.13-1.15 4.27-2.28 6.41-3.42a3.79 3.79 0 00.34-.2c-.24-.38-.46-.73-.68-1.1-.43.22-.8.41-1.17.62a.57.57 0 01-.22.07.31.31 0 01-.24-.16 4.63 4.63 0 01-1-2.49c0-1.08 0-2.16-.08-3.24a3.9 3.9 0 00-1.85-3.38 23.36 23.36 0 00-2.12-1.07c-.17-.08-.36-.13-.62-.23l.39-.23 3.91-2.09a.66.66 0 00.3-.41c0-.87.07-1.76 0-2.63a2.59 2.59 0 00-2.45-2.72h-.42a4.53 4.53 0 00-2 .54L17 25.57c-.12.07-.26.12-.44.2V20c0-.55 0-.58.54-.71a2 2 0 01.48-.06c.65 0 1 .42 1.06 1.22v2.78l.26-.09c1.82-1 3.65-1.93 5.46-2.91a.55.55 0 00.22-.37 11.37 11.37 0 000-1.43 2.59 2.59 0 00-2.4-2.57h-.43M8.61 6.23c-.13 0-.23.11-.36.32a1.72 1.72 0 00.23 2c.09.11.16.24.24.36L8.65 9A4.11 4.11 0 008 8.72h-.13a.53.53 0 00-.49.4 1 1 0 00.22 1.05.65.65 0 00.42.19c.32 0 .54-.35.81-.63a1.57 1.57 0 01-.33 1.51 1.6 1.6 0 01-1.29.65 2 2 0 01-.48-.06 1.46 1.46 0 01-1.12-1h.66c.13 0 .33-.07.36-.16.3-.77.23-.93-.47-1.32a1 1 0 00-.34-.15c-.1 0-.15.11-.24.35a5 5 0 01-.26.56h-.15a6.51 6.51 0 00-.06-.88.43.43 0 00-.24-.34H3.54l.22.43c.8 1.4 1.62 2.79 2.41 4.2.1.19.2.27.35.27a.89.89 0 00.23 0A21.81 21.81 0 0113 12.66h.76a21.79 21.79 0 016.93 1.1.59.59 0 00.23.05c.13 0 .23-.07.33-.26.8-1.41 1.62-2.82 2.42-4.23.07-.12.12-.24.21-.43h-1.21c-.32 0-.46.13-.44.49a4.9 4.9 0 01-.06.77H22c-.09-.22-.19-.42-.26-.64s-.13-.26-.23-.26a.5.5 0 00-.24.09c-.9.55-.75.24-.6 1.2 0 .26.13.36.29.36h.21a4.2 4.2 0 01.62-.08 1.63 1.63 0 01-1.42 1.1h-.16A1.75 1.75 0 0118.7 11a1.35 1.35 0 01-.12-1.25c.25.29.44.62.76.62a.6.6 0 00.34-.11 1 1 0 00.34-1c-.11-.37-.29-.49-.49-.49a4.78 4.78 0 00-.84.25v-.23a2.43 2.43 0 01.24-.32 1.7 1.7 0 00.16-2c-.11-.17-.21-.25-.34-.25a.56.56 0 00-.3.12 1.73 1.73 0 00-.61 1.88 2.3 2.3 0 00.1.51h-.1c-.25-.22-.45-.61-.78-.61a.71.71 0 00-.39.16 1 1 0 00-.27 1.08c.13.31.3.41.49.41a2.85 2.85 0 00.76-.26v.12A1.75 1.75 0 0116 11h-.15a1.92 1.92 0 01-1.7-1.63c0-.14 0-.21.13-.21a.39.39 0 01.15.06 3.27 3.27 0 01.48.35.31.31 0 00.18.09.31.31 0 00.23-.14c.59-.66.59-.68.08-1.4-.1-.14-.19-.22-.29-.22a.45.45 0 00-.27.12 5.35 5.35 0 01-.64.41l-.11-.12c.15-.25.29-.51.45-.76a.25.25 0 000-.35c-.37-.31-.57-.46-.77-.46s-.39.14-.77.42c-.21.15-.23.27-.08.48a6.94 6.94 0 01.41.71l-.1.09a2.11 2.11 0 01-.34-.16 1.48 1.48 0 00-.6-.3c-.16 0-.27.16-.52.53l-.06.09c0 .15-.05.33 0 .43.26.41.38.6.55.6s.32-.12.65-.33l.3-.08v.28A1.88 1.88 0 0111.6 11h-.24a1.74 1.74 0 01-1.61-1 3.58 3.58 0 01-.09-.45l.44.24a.63.63 0 00.33.09.56.56 0 00.57-.53 1.48 1.48 0 00-.12-.72.58.58 0 00-.53-.39.68.68 0 00-.51.27l-.31.32-.1-.05a2.17 2.17 0 01.13-.56A1.69 1.69 0 009 6.4a.68.68 0 00-.35-.17M3.27 23.42a1.85 1.85 0 01-1.77-1.7 9.73 9.73 0 010-1.08c.3.38.53.67.77.94a.31.31 0 00.2.11.38.38 0 00.24-.13 1.16 1.16 0 01.85-.41 1.17 1.17 0 01.49.11 1 1 0 01.59 1.08 1.27 1.27 0 01-.92 1 1.74 1.74 0 01-.45.06m4.89-3.64a12.38 12.38 0 00-1-1.48 11.43 11.43 0 00-1.29-1.11A3.1 3.1 0 017 17a4.79 4.79 0 013.56 1.48l-2.4 1.3m-1.22-4a7.92 7.92 0 00-4.76 1.72 4.78 4.78 0 00-2 4.27A3 3 0 002 24.42a3.31 3.31 0 001.32.3A2.85 2.85 0 005.2 24a2.31 2.31 0 00.8-2.36A2 2 0 004.42 20a2 2 0 00-.49 0 4.58 4.58 0 00-.9.09h-.14c-.16 0-.24-.06-.32-.24a1.16 1.16 0 01.54-1.5 2 2 0 011-.28 2.49 2.49 0 011.69.71 4 4 0 011.11 2.56 4.56 4.56 0 00.08.55l7-3.75a10.61 10.61 0 00-.58-.9l-.35-.07a7.28 7.28 0 00-.92.48.38.38 0 01-.21.07.5.5 0 01-.31-.14A8.3 8.3 0 0010 16.44a7.63 7.63 0 00-3.09-.67M14.37 0H13c.09.39.17.75.26 1.16l-.93-.25v1.36l1-.25c-.1.43-.18.78-.27 1.14h1.34L14.09 2l.94.23V.92l-.94.23c.1-.41.18-.76.28-1.15"/><path d="M13.69 3.68A1.27 1.27 0 0012.44 5a1.25 1.25 0 001.24 1.28A1.28 1.28 0 0015 5a1.31 1.31 0 00-1.3-1.32m9.98 2.11a1 1 0 000 2 1 1 0 000-2M8 2.33a1 1 0 000 2 1 1 0 000-2m2.76 1.27a1 1 0 101 1 1 1 0 00-1-1m8.85-1.27a1 1 0 000 2 1 1 0 000-2M3.87 5.79a1 1 0 000 2 1 1 0 000-2M16.79 3.6a1 1 0 000 2 1 1 0 100-2m-11.7-.39a1 1 0 000 2 1 1 0 000-2m17.39 0a1 1 0 000 2 1 1 0 000-2"/></g></svg>